<?xml version="1.0" encoding="utf-8"?>
<!-- Generator: Adobe Illustrator 18.1.1, SVG Export Plug-In . SVG Version: 6.00 Build 0)  -->
<svg version="1.1" xmlns="http://www.w3.org/2000/svg" xmlns:xlink="http://www.w3.org/1999/xlink" x="0px" y="0px"
	 viewBox="0 0 1827.8 1035.8" enable-background="new 0 0 1827.8 1035.8" xml:space="preserve">
<g id="Dark_1_">
	<g id="Massachusetts_xA0_Image_1_">
		<g>
			<path fill="#363636" d="M1748.2,235.5c1.6,3,1.8,6.9,6.7,7.4c1.8,0.2,0.4,2.8-0.9,3.3c-4.5,2-3.5,6.7-4.8,10.1
				c-0.7,1.9,1.3,3.7,4.1,3.4c2.8-0.3,7.5,3.2,8.2,5.8c1,3.5,7.4,8.9,11.1,9.4c0.8,0.1,1.4,0.1,1.9-0.7c0.4-0.6,1-1.1,1.4-1.7
				c1.1-1.9,6.4-1.4,3.5-5.2c-1.3-1.8-2.7-4.4-5.7-4.8c-0.9-0.1-1.8-0.4-1.5-1.6c0.3-0.9,1.2-0.8,1.9-0.7c4.7,0.2,6.9,3.7,8.6,7.3
				c2.8,5.8,2.6,5.9-3.5,8.3c-4.8,1.9-8.2,5.4-11.5,9.1l0.1-0.1c-2.1-0.6-2.1-0.6-4.3-6.4c-1,2.7-3.1,4.3-3.9,7.1
				c-0.8,2.9-4.9,2.2-6.7,4.4c-0.3-0.3-0.9-0.7-0.9-1c0.4-5.2-3.6-7.1-7.2-7.9c-2.9-0.7-2.5-2.7-3.1-4.1c-1.1-2.4-1.1-4.2-5-2.8
				c-2.6,0.9-5.9,1.3-8.6,2.1c-4.9,1.5-10.2,1.2-15,3.8c-2.7,1.5-6.3,0.8-9.5,1.7c-6,1.7-12.3,3-18.7,3.3c-1.2,0-1.7,0.8-1.2,1.7
				c2.8,6.2,3.2,12.9,4.6,19.5c0.9,4.4,3.3,8.4,2.6,13.7c6.1-3.9,11.7-7.2,16.7-11.4c1.9-1.6,4.7-2,7.2-2.5c1.2-0.2,2.4-0.6,3.4-0.8
				c3.8-0.8,7.5-1.7,10.8-3.7c-1.3,2.3-3.3,3.2-5.7,3.8c-4.8,1.1-9.4,2.9-14.3,4c-1.6,0.4-2.8,2.2-4.3,3.3
				c-5.5,4.2-11.5,7.7-16.1,13c-1,0-2,0-3,0c0.4-3.2-1.1-6.9,2.7-9.3c0.9-0.6,0.8-2.6,0.2-3.5c-2.3-3.4-1.6-7.4-2.5-11
				c-0.9-3.6-2.6-7.4-2-11.4c0.1-0.7-0.8-0.8-1.4-0.8c0-9.5,0-19,0-28.5c0.9,0.1,1.7-0.3,1.4-1.2c-0.9-3.5,2.4-3.9,4-4.5
				c2.2-0.7,4.6-1.3,6.9-1.6c7-1,13.6-3.7,20.5-4.4c6.1-0.6,11.7-3.7,18-3.4c0.8,0,1.3-0.4,1.9-0.9c3.3-2.6,5.1-6.2,7.3-9.6
				C1744.8,235.5,1746.5,235.5,1748.2,235.5z"/>
			<path fill="#363636" d="M1788,289.5c-0.1,0.1-0.2,0.1-0.3,0.2c-1.9,1.7-4,1.6-6.1,0.5c-0.8-0.4-0.2-1.3,0.4-1.8
				c1.9-1.5,3.8-3.6,6-0.4C1788,288.5,1788,289,1788,289.5z"/>
			<path fill="#363636" d="M1767.9,284.9c2.1,0.3,3.5,2,3.9,3.5c0.3,1.1-1.9,2.1-3.3,2.5c-1.7,0.4-2.9,3.7-4.5,1.9
				c-1.3-1.4,1.6-3,2.1-4.9c0.3-1.1,1.3-2.1,2-3.1C1768,284.9,1767.9,284.9,1767.9,284.9z"/>
		</g>
	</g>
	<g id="New_Jersey_xA0_Image_1_">
		<g>
			<path fill="#363636" d="M1672.5,409.5c-1,0-2,0-3,0c-0.2-2-0.3-4,0.1-5.9c0.4-2-0.8-3.2-2.5-2.5c-3.3,1.3-5.5-0.3-7.9-2
				c-4.2-2.9-10.2-3.8-11.2-10.2c0-0.1-0.7-0.2-1-0.3c0-1.8,0-3.5,0-5.2c0.3-0.2,0.7-0.4,0.8-0.6c1.3-3.6,3.2-6.7,7.2-7.8
				c0.8-0.2,1.2-0.8,1.1-1.7c-0.1-2.1,1.4-3.3,2.7-4.7c1.7-1.8,3.7-3.3,4.9-5.6c0.3-0.7,1-1.1,0-1.8c-4.1-3-9.3-4.8-11.8-9.8
				c-0.1-0.1-0.5-0.1-0.7-0.2c-2.9-1.5-4.8-6.4-2.7-8.8c3.3-3.8,0.8-5.7-1.7-7.8c0-0.2,0-0.5,0-0.8c4.4-5,6.4-11.3,9-17.2
				c1.5,0,3,0,4.5,0c0.2,1.2,1.3,1,2.1,1.3c5,1.7,10.1,3.3,15.1,4.9c5.1,1.6,5.9,3.6,4.9,8.7c-0.9,4.4-3.7,8.1-4.2,12.8
				c-0.4,3.4,0.7,4,3.1,3.3c2.8-0.8,4.5,0.4,6.1,2.1c0,6.2,0,12.5,0,18.8c-0.9,1.9-0.9,3.8-0.9,5.9c0.1,3.5-0.6,7.2-3.5,9.7
				c-0.7,0.6-0.4,1.2-0.6,1.5c-1.1,1.9,1,4.6-1.1,5.8c-2,1.3-2.7,2.9-3.3,4.9C1676.8,400.8,1676.6,406,1672.5,409.5z"/>
		</g>
	</g>
	<g id="West_Virginia_xA0_Image_1_">
		<g>
			<path fill="#363636" d="M1493.2,510c-2.2,0-4.5,0-6.8,0c-1.3-2-4.3,0.3-5.5-2.3c-3-6.6-8.6-10.8-14.1-15.3
				c-4.6-3.8-6.2-10.2-11.2-13.9c0-3.8,0-7.5,0-11.2c3.2-1.6,8-1.7,7.2-7.3c0-0.2,0.5-0.7,0.8-0.7c3.1-0.3,1.4-1.9,0.8-3
				c-1.3-2.4-1.5-4.6,0.4-6.8c0.6-0.7,0.9-1.8,1.2-2.7c1.7-5.3,1.8-5.5,6.2-2.5c1.6,1.1,2.5-0.1,3.3-0.5c1.1-0.6-0.3-1.4-0.8-2
				c-0.6-0.7-1.1-1.3-1-2.3c0.6-5.6,5.2-9.1,7.5-13.8c0.3-0.7,1.4-0.6,2.1-0.2c3.6,2.2,5.2-0.1,6.7-2.8c1.3-2.4,2.1-5.3,5.4-6.2
				c1-0.3,2-1.6,1.8-2.7c-0.8-4.5,1-8.7,1.3-13.1c0.2-3.1,0.4-6.2,0.9-9.2c0.6-3.2,0.2-6.5-0.9-9.3c-1.4-3.4-1.1-5.6,2.2-7.3
				c0.5,0,1,0,1.5,0c0.2,0.6,0.5,1.1,0.6,1.7c1.7,10.3,3.5,20.5,5.1,30.8c0.3,1.9,1,2.2,2.7,1.9c7.6-1.4,15.2-2.4,22.7-4.1
				c3.3-0.7,4.3,0.6,4.8,3.3c0.8,4.5,1.6,9,2.6,14.5c2.1-4.7,7.2-6,8.1-10.7c0.1-0.6,0.7-0.8,1.1-0.7c4.3,1.1,4.5-2.4,5.2-4.8
				c0.9-3,2.1-3.4,4.3-1.3c1.7,1.6,4.3,2.7,5.6,1c2-2.7,4.6-4.2,7.2-6.1c1.6-1.2,2.8-1.8,4.7-1c1.7,0.7,3.2,1.4,5.1-0.1
				c1.4-1.1,2.3,0.5,2.5,1.7c0.4,2.9,2.3,4.3,4.7,5.4c0,4,0,8,0,12c-3,1.6-5.5,0-8-1.5c-2.8-1.7-5.2-4-8.5-5.3
				c-0.1,1.2,0.1,2.1-0.2,2.9c-0.9,3.2,0.4,7.1-1.8,9.7c-2.4,2.9-1.9,8-6.8,9c-0.2,0-0.3,1.1-0.4,1.7c-0.1,2.9-1.7,4.1-4.4,3.4
				c-2.5-0.6-2.6,0.7-2.1,2.4c0.3,1.3,1.3,2.7-0.4,3.6c-1.7,0.9-1.9,2.3-2.1,4c-0.5,4.8-4.2,6.6-8.9,5.4c-2.4-0.6-1.9-3.5-4.4-3.8
				c0.6,3.9-2.5,6.6-3,10.1c-1,7.5-3.7,14.2-8.2,20.2c-1,1.4-1.6,3.1-0.7,4.1c2.5,2.8,0.7,5.3-0.6,7.4c-1.4,2.3-3.3,4.5-6,5.2
				c-4,0.9-6.8,3.8-10.2,5.7c-4.1,2.2-7.4,6.7-12.9,3.4c-0.9-0.5-1.3,0.2-1.9,0.7C1496.2,507.9,1494.7,508.9,1493.2,510z"/>
		</g>
	</g>
	<g id="Florida_xA0_Image_1_">
		<g>
			<path fill="#363636" d="M1574.2,955.5c-0.8-1.1-2-2.1-1.6-3.6c1-4-0.9-7-3.2-10c-1.3-1.8-2.1-4-3.7-5.6c-2.1-2.2-4-4.1-7.9-4.5
				c-6.2-0.6-11.3-3.5-12.9-11.3c-0.9-4.5-3-7.9-7.5-9.4c-3.1-1.1-2.8-4.2-3.7-6.4c-0.9-2.1-1.3-4.6-1.3-6.9c0-2.3-1.1-2.7-2.9-2.6
				c-0.1,0.3-0.2,0.5-0.2,0.7c0.2,1.5,2.1,3.1,0.3,4.4c-1.7,1.2-3.1-0.5-4.6-1.4c-3.5-2-4.8-5.6-6.8-8.7c-2.7-4.2-4.3-9.1-8.2-12.7
				c-1.4-1.3-2.4-3.9-2.3-5.8c0.2-2.8-1.3-3.8-3.1-4.9c-2.5-1.6-3.9-3.4-2.1-6.4c0.8-1.3,1-3.2,0.4-4.4c-1.9-3.6-0.3-6.8,0.6-10
				c2.1-6.9,1-14.1-1.3-20.2c-1.6-4.3-4.9-9.9-11.8-9.8c-3.2,0-4.4-3.1-6-5.3c-0.8-1.1-1.3-1.8-2.8-1.9c-2.9,0-6.9-3.7-7.3-6.7
				c-0.3-2-1.1-3.2-2.8-4c-1.4-0.7-2.5-1.6-3.3-2.9c-1.5-2.4-3.7-3.9-6.5-4.8c-2.4-0.7-4.7-1.5-6.7-3.2c-1.5-1.2-3.2-1.6-4.8-0.3
				c-1.8,1.4-4.3-0.1-6,1.6c-1.3,1.3-3.9,2.3-0.9,4.6c1.4,1.1,0.2,2-0.8,1.8c-5.5-1.1-8.6,2.9-12.2,5.8c-4.8,3.7-10.8,4.3-16.4,5.8
				c-1.9,0.5-2.3-0.9-2.4-2.4c-0.2-3.8-2.4-6.5-5.6-7.7c-4.2-1.6-6-4.6-7.6-8.3c-0.9-2.1-2.9-2.9-4.1-1.1c-1.4,1.9-2.4,1.2-3.8,0.7
				c-3.4-1.2-6.8-2.5-10.5-2.4c-1.2,0-2.7,0.5-3.4-0.8c-0.9-1.6,1.2-2.1,1.7-3.3c-6.4-0.2-11.5,4.1-17.6,4.5
				c-1.6,0.1-3.8,2.1-3.6-1.8c0-0.5-1.7-1.3-2.7-1.5c-1.2-0.2-2.1,0.8-2.5,1.9c-1.5,3.6-5.4,3.8-8.2,5.5c-1.7,1-4.2-2.4-3.9-6
				c0.3-4,0.1-7.7-3.6-10.1c-1.1-0.7-1.5-1.9-2.7-2.4c0-2.8,0-5.5,0-8.2c2.4,0.6,4.7,0.3,7.1,0.1c13.3-1.4,26.6-2.9,40-4.3
				c9.7-1,19.5-2.1,29.1-3.8c8.5-1.5,9.1-1.3,12.4,7.2c0.9,2.3,2.3,3.6,5.1,3.3c8.8-0.8,17.6-1.4,26.5-2.1
				c15.8-1.2,31.6-2.2,47.4-3.5c6.7-0.6,6.7-0.8,9.6,4.8c0.5,1,1,1.8,2.2,1.6c1.5-0.2,1.7-1.4,1.6-2.5c-0.2-1.7-0.4-3.5-1.1-5.1
				c-1.8-3.6-1.6-6.7,1.7-9.3c2.8,0,5.5,0,8.2,0c1.6,1.2,3.6,1,5.4,1.2c4,0.4,4.9,1.4,4.3,5.2c-0.2,1.5,0.1,2.7,0.7,3.9
				c2.7,6,5.5,11.9,7.8,18c3.8,10.2,10.7,18.8,14.7,28.9c0.6,1.5,2.1,2.7,3.3,4c2.3,2.7,3.9,5.5,4.5,9.2c0.6,4,1.5,8.2,3.3,11.7
				c6.5,12.3,14.8,23.6,21.4,35.8c3.8,7,9.7,12.9,12.2,20.7c1.1,3.4,2.4,6.5,2.1,10.4c-0.3,4-1.5,8.4,1.2,12.3c0,5.5,0,11,0,16.5
				c-3.6,2.3-5.7,7.8-3.8,11.9c1.5,3.2,0.4,5.2-1.5,7.3c-3.1,3.4-7.3,4.9-11.4,6.3c-2.3,0.8-5.1,0.4-6.5,3
				C1578.8,955.5,1576.5,955.5,1574.2,955.5z M1516.2,860.6c-0.9,1.4-1.2,3.3-3,3c-1.8-0.3-0.8-2.1-1.2-3.1
				c-0.5-1.3-1.8-1.6-2.7-2.5c-0.4-0.4-1.1-1.4-1.8-0.4c-0.6,0.8-0.9,2.1,0.5,2.4c2.2,0.5,1.8,1.9,1.7,3.4c-0.1,1.1-0.2,2.4,0.6,3.2
				c1.2,1.3-1,3.6,0.7,3.9c1.5,0.3,2.2-2.2,3.2-3.4C1515.6,865.6,1518.2,863.7,1516.2,860.6z"/>
		</g>
	</g>
	<g id="Tennessee_xA0_Image_1_">
		<g>
			<path fill="#363636" d="M1485.8,531c2.7,0,6.6-1.1,7.8,0.3c1.4,1.6,0.4,5.3,0.5,8c0,1,0,2,0,2.9c-5.8,0.4-8,4.5-9.7,9.2
				c-0.1,0.2-0.1,0.5-0.2,0.7c-0.7,1.4-2.3,1.8-3.1,1c-1.5-1.7-2.3-0.5-3.7-0.1c-2.9,0.8-3.7,3-4.9,5.2c-1.4,2.7-3.8,3.5-5.2,1.7
				c-0.6-0.7-0.4-2.2-1.9-1.8c-1.3,0.3-1.2,1.7-1.6,2.7c-1.4,3.3-5.5,4.7-6,8.7c-0.1,0.4-1.5,0.7-2.4,0.8c-2.2,0.4-4.2,1.8-5.3,3.1
				c-3.3,4-7.3,6.2-12.3,6.5c-3.9,0.2-5.9,2.8-8.2,5.2c-0.5,0.5-0.8,1.1-0.4,2c1.8,4.5,0.3,7.2-4.5,7.4c-2.5,0.1-2.9,1.3-2.9,3.2
				c0,1.1,0,2.3,0.2,3.4c0.4,2.3-0.5,3-2.8,3.2c-4.6,0.3-9.2,0.9-13.7,1.5c-16.1,2.1-32.1,3.8-48.3,5.3c-21.5,2.1-43.1,3.8-64.6,6.2
				c-13.1,1.5-26.4,2.9-39.7,2.5c-1.4,0-3-0.6-4.2,0.9c-2.5,0-5-0.2-7.5,0.1c-2.6,0.3-3.6-0.5-3-3.1c1.3-0.1,2.4-0.7,2.4-1.9
				c-0.1-2.7,1.7-3.4,4.5-3.7c-2.5-1.7-3.2-3.3-3.9-5.7c-0.8-2.8,0-4.8,1.3-5.6c2-1.4,2.6-3.7,4.7-4.9c0.8-0.5,2.2-1.4-0.1-2.5
				c-1.3-0.6-1.2-3.4,0-3.8c2.9-0.9,5.9-1.1,4.5-5.4c-0.1-0.2,0.3-0.4,0.4-0.6c0.7-3.4,3.4-6.5,1-10.3c-0.6-1-0.5-2.6,0.7-4.1
				c1.8-2.2,4.5-4.6,1.8-8c-0.6-0.7-0.6-1.7-0.4-2.5c0.4-1.7,1.4-2.9,3.3-3c1.8-0.1,3,0.7,3,2.5c0,2.5,1.7,2,3.1,1.9
				c11.2-0.6,22.4-1.1,33.6-1.9c4.7-0.3,4.8-0.6,3.2-4.9c-1-2.7,0.2-2.7,2.3-3.1c2.7-0.4,4.7,1.6,7.1,1.4c5-0.4,9.9-1.2,14.8-1.7
				c8.8-0.9,17.5-2.4,26.4-2.7c6.5-0.2,13-0.2,19.4-1.1c16.4-2.2,33-2.4,49.4-4.2c3.7-0.4,8.2,0.7,10.9-1.7c3-2.7,6.3-2.3,9.3-2.5
				c10.4-0.6,20.5-2.8,30.8-4.1C1476.3,533.4,1481.5,534.3,1485.8,531z"/>
		</g>
	</g>
	<g id="Michigan_xA0_Image_1_">
		<g>
			<path fill="#363636" d="M1320,357.8c0.2-0.6,0.2-1.4,0.7-1.7c7.5-6.8,8.4-16.5,11.3-25.3c2.5-7.5,1.9-15.2,0.1-22.9
				c-0.6-2.7-2.4-4.6-3.7-6.9c-2.7-4.6-3.7-10-7-14.4c-1.2-1.5-0.6-3.5,0.5-4.9c2.2-2.7,1.7-5.3,0.1-7.9c-1.5-2.5-1.6-4.6-0.1-7.5
				c3.5-6.6,4.9-13.8,3.9-21.3c0-0.1-0.1-0.3-0.1-0.3c3.5-3.2,2.1-10.5,6.9-11.3c4.1-0.7,3.7-3.2,5-5.2c0.7-1.1,1.3-2.8,3-2.2
				c1.6,0.6,2,2.6,1.5,3.7c-0.8,2.1,0.2,4.2-0.8,6.2c-0.7,1.3,0.1,2.8,1.7,3.3c1.5,0.5,1.8-0.9,2.3-1.9c0.9-2-0.3-5.4,3.5-5.6
				c-0.3-1.4-0.3-3-0.9-4.3c-2.9-6.6-2.3-8.7,4.1-11.8c1.8-0.9,2.8-1,1-3.2c-2.5-3-0.4-8.4,3.9-11.4c2.7-1.8,5.4-2.4,8.3-0.4
				c2.1,1.5,4.4,2.2,7,1.9c1.7-0.2,3.5,0.6,4.3,1.9c1.7,2.8,4.2,3,6.9,3.7c6.5,1.6,13.1,2.9,17.7,8.7c2.7,3.4,2.7,4.2-1.3,5.4
				c-1,0.3-1.2,0.8-1,1.6c0.2,0.7,0.5,1.6,1,2c7.1,4.8,5.2,12.3,5.6,19c0.2,2.6-0.5,5.2-3.4,6.4c-1.5,0.6-1.3,2.3-1.5,3.6
				c-0.6,3.6-1.1,6.9-5.5,8.3c-3.7,1.2-4.7,10.8-0.2,13.2c3.4,1.8,8.2-0.7,9.3-5.4c0.7-3.4,2.7-6.2,4.4-9c1.6-2.8,5.4-4.4,8.6-5.1
				c2.8-0.7,5.2,1.8,7.1,4.1c0.7,0.9,1.5,1.8,1.8,2.8c2.5,7.5,4.9,15.1,7.2,22.6c0.9,2.9,1.2,5.9,4.1,7.6c0,1,0,2,0,3
				c-2,1.9-1.2,4.3-1.2,6.6c0,2.8,1,5.6-0.3,8.3c-0.4,0.7-0.8,1.3-1.6,1.3c-0.9,0-1.2-0.7-1.3-1.5c-0.1-1.2-0.4-2.3-1.9-2.2
				c-1.7,0.1-1.8,1.6-2.1,2.7c-0.5,2-1.1,4.2-1.1,6.2c0,2.6-1.2,4-3.3,4.9c-2,0.8-2.3,2-2.3,4c-0.1,4.6,0.3,9.6-4.5,12.6
				c-1.3,0.8-1.3,2.3-1.4,3.7c-0.4,3.5-2.1,5.4-6,5.8c-8.1,0.8-16.2,2.3-24.3,3.4c-3.2,0.4-6.6,1.5-9.6,0.8c-3.6-0.9-7-0.7-10.4-0.1
				c-7.6,1.3-15.2,1.6-22.8,2.6c-3.2,0.4-6.3,0.4-9.3,1.7C1329,357.8,1324.5,357.8,1320,357.8z"/>
			<path fill="#363636" d="M1277.2,144c1.3,1.5,0.1,2.3-0.9,2.9c-5.7,3.5-10,8.3-13.3,14.1c-1.3,2.3-1.9,4.4-1.6,6.9
				c0.4,0,0.8,0.2,0.8,0.1c3-4.6,7.7-3,11.8-2.9c4.5,0.1,8,2.2,10.1,6.4c1.4,2.9,4.7,4.3,6.5,7.1c1.1,1.6,3.4,0.1,4.8-0.6
				c2.4-1.3,4.1-1.2,6,0.7c1.1,1.1,7.2,0.6,8.5-0.6c2.7-2.4,5.3-4.9,8.1-7.1c3.2-2.4,7.2-2.5,10.9-2.9c4.6-0.5,9.1-0.5,13-3.5
				c0.8-0.6,1.8-0.9,2.8-1.1c5.4-1.3,6.7-0.1,5.9,5.3c-0.7,4.6,1.3,6,6,5.3c5.1-0.7,9.9-2.3,14.4-4.6c1.3-0.6,2.4-0.1,3.1,1.2
				c0.7,1.3,0.7,2.4-0.6,3.3c-0.7,0.5-1.9,0.5-1.5,2c0.5,2,2.3,3.7,1.7,6c3.9-0.4,4.4,4.8,8.2,5c2.1,0.1,3.6,0.3,4.2-2.2
				c0.5-1.9,1.9-2.1,3.5-1.2c1.2,0.7,2.3,1.4,3.6,2c1.3,0.6,2.6,1.1,1.8,3c-0.7,1.6-1.8,2.4-3.5,2.1c-4.4-0.7-8.7,0-13,0.3
				c-4.9,0.4-10.3,2.7-15.5-0.7c-0.4,1.3-0.8,2.6-1,3.8c-0.4,3.6-0.9,4.1-3.8,1.7c-3.7-3.1-7.8-4.5-12.4-5.4
				c-3.1-0.6-5.3,0.2-7.3,2.5c-2.9,3.2-6.8,4.1-10.8,3.9c-4.9-0.3-6,0.1-7.9,4.8c-0.6,1.6-1.8,2.8-3.1,3.7c-1.7,1.2-2.8,2.8-3.9,4.4
				c-0.5,0.7-0.4,2.3-1.9,1.6c-1.2-0.5-1.5-1.6-1.2-2.9c0.4-1.3,1-2.5,1.9-3.6c0.7-0.8,2-1.8,0.5-2.6c-0.9-0.4-2.5-0.4-3.1,1.3
				c-0.2,0.7-0.7,1.3-1.1,2c-1,1.8-2.5,3.4-4.7,3.2c-2.1-0.2-0.3-2.7-1.4-3.6c-4.8,7.2-6.5,15.9-11.5,23c-0.3,0.4-0.4,0.9-0.4,1.4
				c-0.1,1.9,0,4.1-2.7,3.9c-2.4-0.2-4.2-3.2-3.7-5.7c0.2-1.1,0.3-2.2,0.5-3.3c-1.5,0.2-3.1,1.5-4.2,0.2c-1.2-1.4-0.9-3.5-0.1-4.9
				c1.5-2.6,0.7-5.1,0.2-7.6c-0.7-3.2-3.9-2.6-6-3.3c-2.2-0.8-3.4-1.3-2.2-3.9c0.9-2-0.8-1.8-2-2c-4.9-0.6-9.9-1.2-14.8-1.8
				c-1-0.1-2.1-0.2-2.8-0.7c-8.6-5.4-18.7-5.4-28.2-7.4c-2-0.4-3.7-0.9-4.7-2.6c-1.8-3.1-4.5-4.8-7.7-6c0-1,0-2,0-3
				c4.4-2.3,9.5-3.5,12.7-7.9c1.4-1.9,4.1-2.7,6.1-2.4c7.8,1.2,10.8-6.9,17.1-8.5c0.3-0.1,0.5-0.6,0.6-0.9c0.6-2.3,2.5-3.8,4.3-5
				c5.3-3.5,8.7-8.7,13.3-12.9C1269.2,144,1273.2,144,1277.2,144z"/>
		</g>
	</g>
	<g id="Iowa_xA0_Image_1_">
		<g>
			<path fill="#363636" d="M1172.2,298.5c7.8,0,15.5,0,23.2,0c-0.4,3,0.5,5.2,3,7c2,1.5,2.5,3.3,1.1,5.8c-1.7,3-2.8,6.3,0.5,9.3
				c0.7,0.6,1.4,1.8,1.3,2.6c-0.5,3.7,1.9,4.6,4.8,5.4c2.8,0.8,6,1.1,7.1,4.5c1.6,4.9,7.6,6.7,8.5,12.1c0.1,0.7,1.2,1.1,2.1,1.4
				c2.4,0.8,5,1.5,3.5,5.1c-0.3,0.8,0.6,1.2,1.3,1.5c0,2.5,0,5,0,7.5c-2,2.7-5.3,4.8-4.6,8.9c0,0.2-0.3,0.7-0.6,0.8
				c-4,2.5-7.1,6.9-12.8,6c-2-0.3-5,0.6-5.7,2.5c-0.6,1.7-2.2,4.4-0.3,5.9c2.9,2.2,3.3,4.7,3.5,8.1c0.2,2.6-0.1,4.3-2.1,5.7
				c-1.1,0.8-2.2,1.6-1.7,3.3c1,3.6-0.3,5.6-4.1,6.3c-1.9,0.3-3.6,0.9-2.5,4.1c0.7,1.9,0.2,5.1-2.1,6.9c-1.5,0-3,0-4.5,0
				c-1.9-5.8-4.8-7.9-10.9-7.7c-4.6,0.1-9.2-0.1-13.8,0.8c-9.6,1.8-19.3,0.4-29,1.4c-9.9,1-19.9,0.8-29.9,0.9
				c-10.6,0.1-21.2-0.2-31.8,0c-2.5,0-3.4-0.8-4.7-2.9c-2.1-3.2-4.6-5.9-1.4-9.7c0.1-0.1,0.1-0.3,0-0.4c-1.5-4-0.2-8.6-2.7-12.4
				c-0.3-0.5-0.4-1.7-0.1-2.1c2.4-3.3,0.4-6-1.6-7.9c-3.4-3.3-3.6-6.9-3.4-11.2c0.1-2.6,0.2-6.2-1.3-7.6c-4.5-4.4-5.4-10.4-7-15.7
				c-1.4-4.4-4.8-6.6-6.5-10.3c0-2.5,0-5,0-7.5c1.4-1,1-2.7,1.5-4c1.5-3.9,3.1-7.9-1.5-11c0-1,0-2,0-3c1.6-0.6,1.8-1.3,1.2-3.1
				c-1.2-3.6,0.9-5.7,4.4-4.7c1.9,0.5,3.7,0.4,5.6,0.5c31.5,0.2,62.9-0.6,94.4-1.7C1159.1,299.7,1165.8,299.9,1172.2,298.5z"/>
		</g>
	</g>
	<g id="Texas_xA0_Image_1_">
		<g>
			<path fill="#363636" d="M726,726c0-2.8,0-5.5,0-8.2c6.6,0.6,13.1,1.2,19.7,1.7c12.4,1.1,24.8,2,37.1,3.1
				c17.4,1.6,34.9,3.3,52.3,5c2,0.2,2.9-0.2,3.1-2.5c0.3-5.3,0.9-10.6,1.4-16c0.6-7.2,1-14.4,1.6-21.6c0.9-11.4,2-22.8,2.9-34.2
				c0.6-7.1,1-14.1,1.6-21.2c0.9-11.5,1.9-23,2.9-34.5c0.7-7.8,1.6-15.6,1.9-23.4c0.2-5.2,1.7-10.3,0.8-15.6c5.8,0,11.5,0,17.2,0
				c0.7,0.2,1.4,0.5,2.1,0.6c23.5,1.4,47.1,2.9,70.6,4.2c3.1,0.2,4.5,0.9,4.3,4.3c-1,18.9-1.8,37.9-2.5,56.9
				c-0.2,5.6-1.8,11.5,4.2,15.7c1.6,1.1,2.3,4.1,4.7,3.4c2.2-0.6,4.2,0.3,6-0.2c3.7-0.9,6.5-0.4,7,3.1c0.6,4.2,3.2,4.4,6.2,4.8
				c0.7,0.1,1.8,0,2.1,0.4c3.8,4.5,10.6,0,14.4,4.6c0.1,0.1,0.7-0.1,1-0.3c3.2-3,7,0,10.4-1.2c0.9-0.3,1.9,0.9,1.7,2
				c-0.4,2-0.1,3.3,2.3,3.7c0.9,0.2,1.6,1.1,1.7,2.3c0.1,3.6,1.5,2.7,3.3,1c1.5-1.5,3.5-2.7,5.6-2.7c2.4,0,5.6,2.1,6.2,3
				c2.2,3.9,3.8,1.4,5.4,0.1c1.5-1.2,2.9-1.3,3.8,0.2c1.4,2.4,2.2,2.1,3.4-0.1c1.5-2.8,2.8-2.8,4.6,0c1.2,1.9,3.9,2.2,4.7,1.4
				c2.6-2.7,3.7-1.6,5.2,1c0.7,1.2,2.1,2.2,3.7,2.3c1.7,0.1,2.5,1.4,3.4,2.7c0.7-1.4,0.9-3.1,2.8-2.1c0.8,0.4,1.7,0.2,1.9-0.5
				c0.5-2.4,2.7-2,4.3-2.9c3.2-1.7,6.7,0.6,9.9-1.3c2.8-1.7,5.7-2.6,8.7,0.4c1.2,1.2,3.8,0.5,5-1.3c1.3-2.1,2.8-1.4,4.5-0.9
				c5,1.4,7.3,7.6,13.1,7.3c0.1,0,0.2,0.2,0.3,0.2c4.6,3.9,9.6,6.2,15.9,5.8c4.8-0.3,6.1,1.3,6.2,6.1c0.3,16.6,0.6,33.2,0.9,49.8
				c0,2.5,0.8,4.5,2.4,6.7c2.5,3.4,6.4,6.7,4.5,11.9c-0.2,0.7,0.1,1.1,0.6,1.5c3.1,2.4,4.3,5.9,5.4,9.5c1,3.4,2.9,6.3,4.3,9.5
				c0,1.8,0,3.5,0,5.2c-2.4,7-5.7,13.8-6.8,21.2c-0.1,0.7,0.1,1.2,0.4,1.8c2.9,5.2,0.5,9.7-1.7,14.3c-1.2,2.5-4.4,4.4-1.8,8
				c1.3,1.8-0.8,2.7-2.3,2.6c-3-0.1-5.8,0.7-8.3,2c-5.7,2.9-11.8,4-18.1,4.2c-2.3,0.1-2.7-0.6-1.9-2.5c0.5-1.2,1.1-2.5,1.3-3.8
				c0.2-0.9,0.6-2.1-0.6-2.6c-1.3-0.5-2.5,0.2-2.7,1.4c-0.4,2.5-2.3,4-3.9,5.5c-1,0.9-0.7,1.4,0.2,1.9c2.6,1.5,2.3,4.1,2.6,6.5
				c0.2,1.5-0.4,2-1.8,2.9c-2.7,1.6-6.7,2.5-7.3,6.2c-0.5,3.1-2,4.9-4.5,6.4c-3,1.9-5.5,4.3-8.3,6.4c-2.3,1.8-5,4.9-8.8,2.1
				c-0.7-0.6-1.8,0.1-2.4,0.7c-2.2,2.2-5.3,2.5-8,3.7c-1.9,0.8-3.4,1.3-4.9-0.7c-1.2-1.7-3.3-0.6-4,0c-2.4,2.2-3.8,0.6-5.3-0.9
				c-0.7-0.7-1.4-1.5-2.1-2.2c0.3,1.5,1,2.8,2,3.7c5.6,5,5.5,4.9-0.8,9c-2.5,1.6-4.5,2.5-6-1.7c-0.4,2.1-0.8,3.5-0.9,4.8
				c-0.3,4.5-4.9,7.6-8.5,5.3c-3-1.9-3.6-0.1-4.9,1.6c1.4,1,2-0.1,2.8-0.1c1.9-0.1,2.7,0.8,1.9,2.5c-1.1,2.3-2.5,4.6-4,6.7
				c-0.8,1.2-2.1,1.2-3.3,0.3c-1.3-1-3.2-1.6-4-0.2c-0.6,1.1,0.2,3.2,1.9,4c1.7,0.8,2,2,1,3.6c-0.9,1.3-1,2.7-1.1,4.3
				c-0.5,4.4-3.8,8.6-6.4,8.1c-1.8-0.4-3.3-0.1-5,0.4c1.5,1.3,3,0.9,4.5,0.9c1.2,0,2.3,0.1,2.5,1.6c0.6,3.2-0.3,6.2-2.3,8.5
				c-2.1,2.4-1.2,4.8-0.1,6.5c1.2,1.8,2.1,3.5,2.4,5.7c0.7,4.6,0.1,9.6,3.4,13.7c0.7,0.9,1,2.3,1,3.5c0.1,2.1,0.8,3.5,2.9,4.3
				c1.7,0.6,1.9,2.1,1.8,3.7c0,1.9-1.5,2-2.9,2.3c-1.9,0.3-3.6,1.1-4.7,2.8c-1,0-2,0-3,0c-4.2-5.7-10.2-7.4-16.9-7.6
				c-5-0.1-10.4,1.1-14.1-3.9c-0.3-0.3-0.9-0.3-1.3-0.6c-3.8-2.6-8.9-2.5-12.3-5.9c-1.4-1.4-3.1-2.4-4.9-2.4c-6.3,0-7.4-4.5-9-9.1
				c-1.4-4-2.5-8.3-5.6-11.6c-2-2.2-4.2-4.5-2-8.1c0.9-1.5,0.2-3.6-0.9-4.9c-1.4-1.7-1.6-3.1-1.1-5.3c1.2-4.5-0.2-6.2-4.2-8.1
				c-3.5-1.6-5.8-4.7-7.4-8.1c-2.5-5.4-5.1-10.8-10.1-14.2c-3-2-4.2-4.7-4.9-7.9c-0.2-1.1-0.3-2.2-0.9-3.2
				c-3.6-5.5-3.6-12.4-7.5-17.8c-0.5-0.7-0.4-1.9-0.6-2.9c-0.2-1.1-0.5-2.1-1.3-3.1c-4.6-6.4-9.9-12.1-16.5-16.6
				c-1.5-1-2.7-2.7-3.6-4.4c-2.1-3.8-4.1-7.1-9.4-5.4c-1.2,0.4-2.8-0.6-4.3-1c-1.7-0.4-3.5-1.2-5.1-0.9c-3.6,0.5-6.9,0.5-9.9-2
				c-0.3-0.3-1.3-0.4-1.4-0.3c-1.9,3.4-4.6,3.6-7.8,1.9c-0.2-0.1-0.7,0.2-1.1,0.3c-4.7,1.6-7.3,5.5-8.6,9.7
				c-1.5,4.8-3.2,9.3-7.3,12.4c-1.5,1.2-3,2.2-4,4.2c-1,2-3.5,2.4-5.5,1.1c-2.9-1.9-6.6-2.7-8.6-6.1c-0.7-1.2-2.1-1.8-3.6-1.8
				c-1.5,0-2.7-0.9-3.4-2c-1-1.6-2.3-2.2-4-2.3c-2-0.1-3.4-1.3-4.8-2.6c-2.6-2.3-4.5-5.5-7.3-7.2c-2.8-1.7-5.2-3.5-6.8-6.1
				c-1.8-3-3-6.5-4.6-9.7c-1.4-2.9-2.1-5.9-1-9c0.8-2.1,0.3-3.8-1.1-5.5c-1.8-2.2-3.5-4.7-3.7-7.6c-0.3-6.6-4.6-10.3-9.4-13.7
				c-1.3-0.9-3-1.4-4.1-2.6c-4.1-4.3-7.3-9.4-11.6-13.6c-3.9-3.9-5.9-9.7-12-11.4c-1.2-0.3-1.9-1.8-2.2-2.9
				C735.5,731.7,731,728.6,726,726z"/>
		</g>
	</g>
	<g id="Kansas_xA0_Image_1_">
		<g>
			<path fill="#363636" d="M1106.2,465c0,27.1,0,54.3,0.1,81.4c0,2.2-0.5,2.7-2.7,2.7c-31.4-0.1-62.7-0.1-94.1-0.1
				c-0.5-0.1-0.9-0.4-1.4-0.4c-18.9-0.7-37.8-1.2-56.7-2c-11.6-0.5-23.1-1.2-34.7-1.9c-11.1-0.6-22.1-1.2-33.2-1.7
				c0-7.5,0-15,0-22.5c0.3-0.5,0.8-1,0.8-1.6c-0.1-9.2,1.1-18.3,1.6-27.5c0.3-6.1,0.1-12.2,0.9-18.2c0.6-4.5,0.1-9,0.7-13.4
				c1.3-10.5,1.4-21,2-31.5c4.8,0,9.5,0,14.2,0c1.7,0.9,3.6,0.7,5.5,0.8c12,0.5,23.9,0.9,35.9,1.6c27.4,1.5,54.8,2.3,82.2,2.9
				c10.5,0.2,21-0.1,31.5,0.3c7.8,0.4,15.7,0.6,23.6,0.2c3.1-0.1,5.4,0.3,7.7,2.2c0.6,0.5,1,1.6,2.1,1c4.2-2.4,5.7,0.8,6.7,3.7
				c1,2.7-0.2,4.8-2.9,6.3c-1.6,0.9-3.6,3.8-2.3,5.1C1097.8,456.7,1098.9,464.1,1106.2,465z"/>
		</g>
	</g>
	<g id="North_Dakota_xA0_Image_1_">
		<g>
			<path fill="#363636" d="M1052.2,202.5c0,3,1.2,7.2-0.3,8.7c-1.5,1.5-5.7,0.3-8.7,0.3c-9,0-18,0-27,0c-0.7-1-1.7-0.9-2.7-0.9
				c-16.5-0.1-33-0.1-49.5-1.3c-11.1-0.8-22.3-1.1-33.4-1.4c-11.7-0.4-23.3-1.8-34.9-1.8c-3.7,0-7.4-0.6-11.1-0.8
				c-10.1-0.5-20.2-2.2-30.3-2c0-4,0-8,0-12c1.1-1,0.7-2.3,0.8-3.5c0.9-10.4,1.9-20.8,2.8-31.2c1.1-12.8,2.1-25.5,3.3-38.3
				C862,107.8,863,97.4,864,87c5.2,0,10.5,0,15.8,0c0.9,1.1,2.3,0.9,3.5,1c13.3,1,26.6,2.1,39.8,3c17.3,1.1,34.6,2.1,51.9,2.9
				c18.4,0.9,36.9,1.5,55.3,2.1c5.7,0.2,6.4,0.9,7.3,6.8c0.5,3.2,0.7,6.4,1,9.5c0.3,3.5,0.2,6.8-0.4,10.2c-0.3,1.5-0.6,3,0,4.4
				c2.1,5.2,2.7,10.8,5,15.9c0.9,2,1.7,4.1,1.8,6.4c0.3,8.1-1,16.4,2.1,24.4c0.4,0.9-0.2,2.2-0.3,3.3c-0.4,2.9-0.8,5.9,0,8.5
				C1048.4,191.1,1051.3,196.5,1052.2,202.5z"/>
		</g>
	</g>
	<g id="Oregon_xA0_Image_1_">
		<g>
			<path fill="#363636" d="M345,93.8c4.8,0,9.5,0,14.2,0c0.6,0.4,1.5,0.7,1.8,1.3c1.5,2.6,3.5,3.8,6.5,3.9c2.1,0.1,4.1,1.9,4.2,3.7
				c0.4,4.3,2.1,8.5,0.7,13.2c-1.4,4.6-1.4,6.1,4.1,7.7c2,0.6,4,1.5,5.7,2.7c2.7,1.8,5.5,1.7,8.2,0.4c7-3.3,13-0.6,18.6,3.1
				c3.8,2.5,7.5,4.2,12.1,2.9c1.9-0.5,3.9-1.7,6,0c3.1,2.7,6.8,2.9,10.5,1.5c5.2-1.9,10.7-0.9,16.1-1.4c5.4-0.6,10.9,3.6,16.8,0.7
				c0.7-0.4,1.9,0.2,2.9,0.4c15.9,3.8,31.9,7.6,47.8,11.3c0.9,0.2,1.7,0.5,2.1,1.4c2,4.7,6.1,8.2,7.7,13.1c0,1.8,0,3.5,0,5.2
				c-0.6,0.6-1.4,1.1-1.9,1.8c-4.6,6.2-7.2,13.7-13,19.2c-0.6,0.5-0.6,1.6-1,2.4c-1.1,1.9-2.1,4.4-4.4,4.7c-2.3,0.4-3.1,1.6-3.8,3.3
				c-0.8,1.7-1.7,3.3-2.6,4.8c-2.4,4-1.9,6.2,2.2,8.3c1.9,0.9,3.1,5.4,2,7c-2.4,3.4-4.3,7.2-5.7,10.9c-4.4,11-5.6,22.9-8.6,34.3
				c-2.7,10.7-5,21.6-7.4,32.4c-1.5,0-3,0-4.5,0c-2.1-1.7-4.7-1.3-7.1-1.9c-11.4-2.9-22.9-5.7-34.4-8.4
				c-16.2-3.9-32.5-7.7-48.7-11.4c-13.9-3.2-27.6-7.3-41.4-11.1c-18.7-5.2-37.3-10.8-56-16.3c-1.7-0.5-3.3-0.8-2.5-3.4
				c0.4-1.4-0.2-3-1.9-3.7c0-3.5,0-7,0-10.5c1.1-2.6,2.2-5.2,3.1-7.9c0.4-1.1,0.6-2.6,0.1-3.7c-2.1-4.7-0.9-8.7,2.3-12.3
				c3-3.4,4.3-8.7,7.7-10.7c5.7-3.3,4.3-10.9,10-13.5c-0.4-3.5,2.2-6,3-9c2.7-9.7,7.1-18.7,11.2-27.8c1.3-3,1.8-6.2,3.3-9
				c3.2-6.3,5.3-13,7.6-19.6C340.9,107.1,342,100.1,345,93.8z"/>
		</g>
	</g>
	<g id="Arizona_xA0_Image_3_">
		<g>
			<path fill="#0e81ad" stroke="#157E9B" stroke-width="3" stroke-miterlimit="10" d="M529.5,495.8c1.2,0,2.5,0,3.8,0
				c4,1.5,8.1,1.9,12.3,2.7c19.1,3.4,38.2,6.9,57.3,10.1c16.8,2.8,33.6,5.5,50.5,8.1c8,1.2,16,2.1,24,3.2c0,2.2,0,4.5,0,6.8
				c-0.7,3.9-1.4,7.8-2,11.8c-2.7,19-5.3,38-7.9,57c-3.3,23.9-6.7,47.8-10.1,71.8c-2.5,17.6-5,35.3-7.3,52.9
				c-0.6,4.5-2.1,9-1.3,13.6c-3,0-6,0-9,0c-4.9-2.5-10.4-2-15.5-2.9c-11.6-2-23.4-3.2-35.1-5c-2.9-0.5-5.8-0.6-8.6-2.3
				c-13.5-8.1-27.1-16-40.7-24c-21.9-12.9-43.9-25.7-65.8-38.6c0-2,0-4,0-6c0.9-0.4,2-1,2.1-2c0.5-3.6,3-3.5,5.5-3.1
				c3,0.6,2.8-2.3,3.7-3.6c0.6-0.8,0.9-3.3-1.9-3.8c-2.2-0.4-4.1-2.3-3.1-5c0.9-2.3,0.6-4.6,0.7-6.9c0.1-2-0.1-4.9,2-5.4
				c3.6-0.9,4.1-3.7,5.5-6.2c1.7-3.1,2.6-6.5,2.6-9.8c0-3.3,3.7-3.4,4-5.9c0.4-2.9,2.2-3.7,4.6-3.8c1.6-0.1,2.8-1,4.1-1.6
				c1.8-0.8,2.3-1.7,0.4-3.5c-2.2-2-4.2-4-4.1-7.7c0.1-3.5-1.1-7-3.1-10.4c-1.7-2.7-1.6-6.3,0.1-9.9c1.6-3.5,4.2-7.1,2.9-11.7
				c-0.7-2.7,0.3-5.9,0.4-8.6c0.1-4.8,1.9-9.6,0.6-14.5c-0.9-3.5,1.3-6.3,4.8-6.9c4.4-0.6,7.9,0.9,10.9,4c0.8,0.9,2,3,3.3,0.5
				c1.6-3,3.7-5.7,4.2-9.4c0.6-5.2,1.8-10.3,3.1-15.3C527.8,501.7,527.5,498.4,529.5,495.8z"/>
		</g>
	</g>
</g>
<g id="Mid_1_">
	<g id="Connecticut_xA0_Image_1_">
		<g>
			<path fill="#464646" d="M1683.8,283.5c3.9-2.1,8.4-1,12.6-2.4c2.5-0.9,5.3-1.7,8-1.9c3.5-0.3,6.7-2,10-2.6c5.4-0.9,10.7-3,16.3-2
				c0.7,0.1,1.8,0.1,1.6,1c-0.3,2.6,1.3,4.6,1.5,7c0.4,3.7,1.7,7.2,1.9,11.1c0.3,5.5,0.2,5.4-4.2,8.1c-6.9,4.3-14.6,5.6-22.1,7.8
				c-1.9,0.6-2.8,2.3-4.3,3.4c-5.3,4-11.4,7-15.4,12.4c-1.2,0-2.5,0-3.8,0c0.5-3.2-1.1-6.9,2.7-9.3c0.9-0.6,0.9-3-0.2-4.1
				c-1-1-0.9-2-0.8-3c0.3-3.8-1.2-7.5-2.1-11c-0.7-2.8,0.2-6.1-1.8-8.6C1683.8,287.5,1683.8,285.5,1683.8,283.5z"/>
			<path fill="#464646" d="M1748.2,235.5c0.6,2.5,1.1,5.1,3.4,7.1c-1.8,0.4-2.9,0.7-3.4-1.5c-0.5-2.3-2.4-3.3-4.2-0.9
				c-1.3,1.7-3.6,2.6-3.7,5.2c0,0.3-1,2.2-2.3,1.9c-3.7-0.7-7.1,0.8-10.3,1.8c-5.9,1.8-12.2,1.7-18,4c-2.2,0.9-5,0.1-7.6-0.3
				c3.5-0.3,6.5-1.9,9.9-2.5c5.5-1.1,11.4-1.3,16.6-3.9c0.5-0.3,1.2-0.3,1.8-0.3c5.2,0.5,8-2.3,9.8-6.7c0.6-1.5,3-1.8,2.8-3.9
				C1744.8,235.5,1746.5,235.5,1748.2,235.5z"/>
			<path fill="#464646" d="M1781.7,274.8c1.7-5.6-2.1-8.7-5.5-11.9c-0.3-0.3-0.6-0.7-0.9-1.2c2.5-0.1,6.5,3.1,7.3,5.9
				c0.4,1.6,0.6,3.2,2.4,3.9c0,0.8,0,1.5,0,2.2C1783.7,273.5,1782.6,273.9,1781.7,274.8L1781.7,274.8z"/>
			<path fill="#464646" d="M1748.5,257.6c1.9,1.9,3.3,3.1,6.2,2.3c3.2-0.9,4.9,3,5.8,5c1,2.2,1.6,3.9,3.9,5.1c1.3,0.7,2,2.7,3,4.2
				c-1.2,0.1-2.5,0.8-2.5-1.3c0-0.4,0-1-0.2-1c-3.6-1.4-4.1-5.2-6.2-7.8c-1.9-2.3-4.2-3.7-7.5-3.3
				C1748.7,261.1,1748.6,260.8,1748.5,257.6z"/>
			<path fill="#464646" d="M1748.6,254.6c0.2-4.2,1-8.1,4.3-11c0.8-0.7,1.7-0.8,2.3-0.2c0.5,0.5,0,1.3-0.5,1.5
				C1750.5,246.7,1750.7,251.3,1748.6,254.6z"/>
			<path fill="#464646" d="M1771.9,288.1c-2,2.1-4.8,2.6-6.6,4.7c-0.4,0.5-1.2,0.5-1.6-0.1c-0.5-0.7,0.3-1.1,0.7-1.4
				c0.4-0.2,1.2-0.1,1.4-0.4c0.8-1.6,6.1-1,2.6-5.1C1769.5,286.6,1770.7,287.4,1771.9,288.1z"/>
			<path fill="#464646" d="M1745.4,293c0.1,0.8-4.3,4.7-5,4.4c-0.3-0.1-0.6-0.5-0.8-0.8c-0.3-0.6,4-4.9,4.7-4.6
				C1744.7,292.2,1745,292.6,1745.4,293z"/>
			<path fill="#464646" d="M1781.7,274.8c-4.1,0.5-6.8,3.6-10.4,5C1771.2,277.3,1777.1,274.4,1781.7,274.8
				C1781.7,274.8,1781.7,274.8,1781.7,274.8z"/>
			<path fill="#464646" d="M1751.5,289.1c1.3-2.9,3.7-2.6,6-2.3c-2.2-0.2-2.5,2.8-4.7,2.6C1752.4,289.4,1752,289.3,1751.5,289.1z"/>
		</g>
	</g>
	<g id="Vermont_xA0_Image_1_">
		<g>
			<path fill="#464646" d="M1710,163.5c1,2.7,2.7,5.4,0.1,8.2c-0.6,0.6,0,1.7,0.8,2.6c3.6,4.3,3.3,9.4-0.7,13.4
				c-0.5,0.5-1,1-1.5,1.5c-2.2,2.4-4.4,4.2-3.5,8.6c1.3,6.8,0.1,13.7-2.3,20.5c-1.2,3.4-1.4,7.7,0.6,11.5c1,1.8,0.3,3.9,0.5,5.9
				c0.5,4.9-1.1,10,1.3,14.9c1,2.1,0,4.3-3.3,4.3c-4-0.1-7.6,1.4-11.3,2.6c-1.9,0.6-4.2,0.2-6.3,0.3c-0.7,0-1.2-0.5-1.1-1.2
				c0.7-3.5-1.1-6.7-1.7-10c-1.3-6.2-3.3-12.2-5-18.3c-0.2-0.9-0.6-1.2-1.6-1c-4.3,0.9-5.2,0.5-3.5-3.1c1.7-3.7-1.1-5.4-2.1-7.6
				c-0.7-1.6-1.1-3.1-1.2-4.7c-0.1-2.7,0-5.5,0-8.2c0-3.7-0.8-7.1-2.3-10.7c-1.4-3.2-2.2-7.4-2.2-11.3c0-1.7,0.2-3.5-1.6-4.6
				c0-0.5,0-1,0-1.5c5.9-2.2,12.1-3.5,18.1-5.2c8.4-2.3,17.1-3.8,25.4-6.8C1707,163.5,1708.5,163.5,1710,163.5z"/>
			<path fill="#464646" d="M1688.2,325.5c-0.2-3.9,3.2-5.5,5.5-7.2c4.5-3.1,9.6-5.6,13.4-9.5c1.8-1.8,4.3-2,5.8-2.3
				c3.3-0.5,6.4-2.8,10.1-1.6c-14,2.6-24.6,10.7-34.1,20.5C1688.8,325.5,1688.5,325.5,1688.2,325.5z"/>
		</g>
	</g>
	<g id="Delaware_xA0_Image_1_">
		<g>
			<path fill="#464646" d="M1672.5,428.2c-0.9,0.7-1.8,2-2.6,2c-5.6-0.5-10.7,2.7-16.3,1.7c-3.4-0.6-2.6-4-3.4-6
				c-2.5-6.5-3.3-13.5-5.8-20.1c-2.4-6.5-3.3-13.6-4.8-20.4c-0.2-1.1,0.1-1-1.2-0.8c-1.5,0.3-0.2-1.4,0.1-1.8
				c1.2-1.6,3.6-2.3,3.9-4.7c2.5,0,5,0,7.5,0c0.5,2.1,0.4,4.1-0.1,6.1c-0.6,2.7,2.1,8,4.5,9c0.7,0.3,1.5,0.2,1.5,1.2
				c0,0.5-0.1,1.2-0.4,1.3c-0.9,0.5-1.6-0.4-2.4-0.5c-1-0.1-0.3-2.2-1.5-1.4c-1.3,0.9-0.1,1.9,0.5,2.8c1.9,2.9,4.3,5.4,5.6,8.9
				c1.5,3.9,4.8,7.9,8.8,8.7c4.5,0.9,3,3.2,2.8,5.5c-0.1,0.8-1,2.1-0.1,2.3c3,0.5,2.2,3.2,3.3,4.8
				C1672.5,427.2,1672.5,427.8,1672.5,428.2z"/>
			<path fill="#464646" d="M1655.2,483c-0.4-2.3-2.5-4.1-2.1-6.6c0.3-1.7-1.6-4.1,2.1-4.7c2.7-0.4,1.5-3.7,2.5-5.5
				c3.1-5.9,5.6-12.2,6.7-18.9c0.6-3.6,3.9-6.4,3.2-10.6c0.4,4.2-1.3,8-2.2,11.9c-2,8.6-5.6,16.5-8.5,24.8c-1.1,3.1-0.3,6.4-0.3,9.7
				C1656.2,483,1655.8,483,1655.2,483z"/>
		</g>
	</g>
	<g id="Virginia_xA0_Image_1_">
		<g>
			<path fill="#464646" d="M1449.8,541.5c-4.5,0-9-0.2-13.5,0.1c-2.6,0.2-3.6-0.5-3-3.1c3.2-2.4,7.5-2.3,10.7-5
				c3.1-2.7,5.9-6,9.8-7.7c0.6-0.3,0.9-0.9,1.1-1.8c1-3.9,2.5-7.7,6.2-9.9c5.1-3.1,10.1-6.1,12.3-12.2c0.5-1.3,1.4-2.6,2.4-3.6
				c1.5-1.5,3.5-1.9,4.4,0.4c0.6,1.5,1.7,2.7,2.4,4.1c2.1,3.8,6.7,4.6,10.3,2.2c2.5-1.7,5-4.4,8.4-2.8c2.8,1.3,5.3,0,7-1.2
				c4.7-3.1,9.1-6.6,14.5-8.4c1-0.3,1.5-1.5,2.2-2.4c1.3-2-0.2-3.7,0-5.6c0.4-3.4,2.1-6.2,3.9-9c2.2-3.5,3.3-7.6,4.5-11.5
				c1.3-4.1,2.7-8.3,3.4-12.5c0.8-4.5,2.1-5.9,6.5-5c1.6,0.3,2.5,1.5,3.2,2.9c1.3,2.4,3.3,1.1,3.5-0.2c0.7-3.9,3.7-6.9,3.6-11
				c-0.1-2.9,1.4-5.1,5-4.2c0.6,0.1,1.4,0.7,1.5-0.2c0.5-4.3,5.4-5.1,6.5-9.6c1-4.1,2.5-8,2-12.3c-0.1-1.3-0.7-3,0.6-3.9
				c1.4-0.9,3.2-0.9,4.6,0c3.4,2,7.3,3.1,10,6.1c0.5,0.6,1.2,1,2,0.7c0.9-0.3,0.7-1.2,0.7-1.9c0-2.1-0.1-4.2-0.2-6.4
				c1.2,0,2.5,0,3.8,0c-0.8,2.5,0.2,3.2,2.7,3.3c2.8,0.1,6.2,0.3,6,4.4c-0.1,2.6,1,3.3,3.2,3.1c1.2-0.1,2.2,0.1,3.2,0.7
				c2.3,1.4,4.6,2.2,7.3,1.6c1.7-0.4,3.8,0.5,3.4,2.4c-0.7,3.7-0.2,8.6-4,10.6c-3.5,1.9-4,4.2-4.3,7.5c-0.1,1.5-0.3,2.8,0.7,3.7
				c1.2,1,2.5,0.2,3.6-0.7c2-1.6,3.7-1.4,5.2,1.1c2.3,3.6,5.3,5.8,10,4.1c1.3-0.4,3,0.2,4.1,1.3c2.9,2.7,6.4,4.1,10.1,5.1
				c1.8,0.5,2.5,1.8,1.3,2.9c-1.9,1.7-1.4,3.3-1.1,5.3c0.2,1.2,0.8,4.1-1.9,3.2c-2.1-0.7-2.8,1-4.4,0.9c1.8,1,3.8,0.1,5.4,1.1
				c1.8,1.2,2.8,3.2,4.9,4.2c1,0.4,1.2,3,0.4,4.1c-1,1.4-2.1,0-3.2-0.7c-0.6-0.4-1.4-1-1.9,0c-0.3,0.6-0.1,1.2,0.7,1.4
				c0.9,0.3,2.1,0.8,1.6,2c-0.4,1.2-1.8,0.5-2.7,0.7c-0.5,0.1-0.9,0.2-1.4,0.3c0.5,1.5,1.7,0.8,2.5,1.2c2.4,0.9,4.9,2.1,6.2,4.2
				c0.8,1.3-1.2,2.6-2.4,3.6c0.2,1.2-0.1,2.4-1.3,2.6c-1.7,0.2-1.3,0.9-0.8,1.9c0.5,1,1,1.8,2.2,1.2c0.8-0.4,1.9-0.6,1.6-2
				c-0.3-1.3-0.8-2.6-1.6-3.7c2.2,0.3,4.4,0.2,6.2-1.4c0.7-0.6,1.9-1.2,2.2-0.5c1,2.5,5,2.9,4.7,6.5c-0.1,1.2,0.6,2.6,1.8,3.5
				c0,2.5,0,5,0,7.5c-4.1,0.3-7.9,1.7-11.9,2.5c-15.8,3.4-31.6,6.8-47.5,10c-15.5,3.1-31,5.9-46.5,9c-8.4,1.7-16.8,2.9-25.3,3.7
				c-8.9,0.9-17.6,2.5-26.5,3.2c-5.4,0.4-11.2,0.2-16.2,1.8c-8.8,2.8-17.8,2.7-26.6,4.1C1456.6,539.7,1452.9,539.5,1449.8,541.5z"/>
		</g>
	</g>
	<g id="South_Carolina_xA0_Image_1_">
		<g>
			<path fill="#464646" d="M1505.2,583.5c5.2,0,10.5,0,15.8,0c0,0.1-0.1,0.3-0.1,0.4c4.3,1.9,8.4,3.9,9.8,9c0.2,0.7,1,0.5,1.6,0.4
				c8.4-1.2,16.9-2.2,25.3-3.8c3.5-0.7,6.2-0.3,9,1.8c11.7,8.5,23.6,16.9,35.4,25.3c0,1,0,2,0,3c-8.1,6.2-11.9,14.9-14.8,24.3
				c-0.6,2,1.8,1.9,1.4,3.6c-0.3,1.1-0.5,2.2-1.4,2.9c-2.3,1.7-4.1,4-6.6,5.4c-1,0.5-2.5,1.1-2.7,2.4c-0.4,2.7-2.8,4.1-3.9,6.3
				c-1.1,2.1-5.4,1.8-4.2,5.6c0,0.1-0.3,0.3-0.5,0.5c-4.4,3.2-8.4,7-13.5,9.1c-1.3,0.5-3.5,1.2-1.1,3.3c1.9,1.7,0.2,3.1-1,3.9
				c-5,3.2-7.1,8.8-10.9,12.9c-2,0-4,0-6,0c-2.2-1.7-3.6-4.2-3.8-6.6c-0.4-5.3-3.1-8.4-7.6-10.4c-1.8-0.8-2.8-2-3-4.2
				c-0.3-4.9-3.6-8.6-5.8-12.7c-0.5-1-1.8-1.3-2.9-1.4c-6.1-0.6-8.7-6.1-11.7-9.9c-2.2-2.8-3.9-5.4-7.4-6.8
				c-1.6-0.6-3.4-1.4-3.6-3.8c-0.2-1.9-1.8-2.7-3.4-3.5c-6.4-3.2-11.3-7.7-14.2-14.5c-1.6-3.7-4-7.2-8.8-7.4c-1.2,0-2.1-0.5-3.1-1.2
				c-3.1-2.1-6.2-4.1-9.4-6.1c0-1.5,0-3,0-4.5c0.7-1.2,1.6-2.3,2.1-3.5c1.8-4.3,4-8.1,9-9.4c1.5-0.4,3.1-0.4,4.5-1.4
				c8-5.2,16.9-7.2,26.5-7.6C1497.7,584.8,1501.8,585.6,1505.2,583.5z"/>
		</g>
	</g>
	<g id="Mississippi_xA0_Image_1_">
		<g>
			<path fill="#464646" d="M1297.5,613.5c3.8,0,7.5,0.2,11.2-0.1c2.6-0.2,3.6,0.5,3,3.1c-4.9-0.5-4.9-0.5-4.7,4.2c0,0.6,0,1.2,0,1.9
				c-0.1,19.3-0.5,38.5-1.4,57.8c-0.6,12.2-0.1,24.4-0.7,36.6c-0.5,9.1-0.6,18.2,0.8,27.2c1.6,10.6,3.2,21.3,4.4,31.9
				c0.3,2.3,0,4.9,1.8,6.9c0,2.2,0,4.5,0,6.8c-3.3,3.8-10.8,5.2-13.7,2.3c-1.6-1.6-3.2-1.8-5.3-1.9c-2.3-0.1-4,1.1-5.9,1.8
				c-4.5,1.6-9,3.3-11.8,7.5c-1,0-2,0-3,0c-0.9-1.3-2.3-2.3-2.8-3.9c-1-3.4-2.4-6.8-4.9-9.4c-3.1-3.3-2.6-6.7-0.9-10.3
				c0.4-0.9,0.8-1.8,1.2-2.7c1.1-2.2,0.7-3.2-2-3c-4.2,0.3-8.5,0.5-12.7,0.7c-13.4,0.7-26.9,1.5-40.3,2.1c-1.8,0.1-5,1.5-4-2.9
				c0.1-0.5-1.3-1.4-2-2.1c0-2,0-4,0-6c1.1-0.2,2.5,0,3.3-1.2c-2.8-3.2-3-3.5-1.6-4.9c1.8-1.8,2.1-3.7,1-6c-0.4-0.8-0.1-1.9,0.5-1.8
				c4.5,0.8,3.2-2.6,3.8-4.8c0.3-1.2,0.8-2.6,1.9-3.1c4.5-2.2,6.6-5.4,4.6-10.3c-0.6-1.5,0-2,0.7-2.9c0.5-0.5,1-1.5,1.5-1.5
				c2.4-0.1,3.6-1.5,4.7-3.3c-2.1-0.6-1.9-3.1-3.4-4.3c-2.1-1.6-4.5-3.5-0.4-5.8c0.2-0.1,0.2-0.4,0.3-0.8c-1.2,0-2.3,2-3.5,0.1
				c-1.4-2.2,0.6-3,1.9-4.5c-5.7-1.7-2-4.6-0.8-7.2c-1.5-0.1-3.9,1.4-3.5-0.3c0.8-3.2-3.3-6.8,1-9.5c0.7-0.4,0.4-1.5-0.1-2.4
				c-1.3-2.6-1.8-5.5-2.7-8.2c-1-2.7-0.1-5.5-1.2-8.1c-0.4-0.9,0.1-1.6,0.6-2.4c1.8-2.9,5.1-5.2,3.1-9.5c-0.7-1.6,0.2-2.9,2.3-2.8
				c1.7,0.1,2.1-0.7,1.6-2.4c-0.6-2.1-0.3-4.6,1.7-5.6c1.8-0.9,2.6-2.2,3.2-3.7c0.5-1.2,1.1-2,2.2-2.3c3.4-0.9,3.9-4.5,3.4-6.2
				c-1.3-5,3-8.2,3.1-12.6c0-0.9,1.3-1.2,2.2-0.9c2.8,1.2,3.2,0.1,2.8-2.5c-0.4-2.3,2.5-5.2,3.9-4.2c2.9,2.2,6.1,1.5,8.9,1.1
				c14.4-1.7,28.9-2.2,43.4-2.9C1295.3,614.4,1296.6,614.8,1297.5,613.5z"/>
		</g>
	</g>
	<g id="Indiana_xA0_Image_3_">
		<g>
			<path fill="#0e81ad" stroke="#157E9B" stroke-width="3" stroke-miterlimit="10" d="M1368,349.5c3.2,0,6.5,0,9.8,0
				c0.3,1.3,1.3,0.8,2.1,0.9c1.2,0.1,2.8-0.4,2.9,1.5c0.1,1.8-1.4,1.8-2.6,1.9c-1.8,0.1-1.7,1-1.5,2.5c1.9,15.5,3.8,30.9,5.6,46.4
				c1.4,11.8,2.3,23.7,3.9,35.4c0.4,2.6-0.4,5.7,1.7,8.1c0,1,0,2,0,3c-0.4,1.7-4.1,1.6-2.6,4.3c0.9,1.5,0.1,4,2.6,4.7c0,1,0,2,0,3
				c-1.8,2.1-5,1.3-6.8,3.3c-1.8,1.8-3.3,3.3-6.4,1.9c-2.8-1.2-3.9,0.2-3.9,3.4c0,1.7,1.7,3.4-0.5,5.1c-2.2,1.7-4.3,3.7-4.6,6.9
				c-0.1,1-1.1,2.2-2.2,2.3c-4.4,0.7-3.7,4.2-3.9,7c-0.1,1.4,1.2,3.1-0.7,3.8c-1.7,0.6-2.2,2.4-3.6,3c-1.7,0.7-7.2-3.6-7.6-5.6
				c-0.3-1.7-0.8-2.3-1.9-0.5c-0.7,1.2-1.8,1.8-2.4,3.4c-0.9,2.5-0.9,5.5-3.1,7.4c-1.2,1.1-2.1,2.9-4.3,0.3
				c-1.3-1.5-3.7-4.4-6.9-1.9c-1.5,1.2-1.5,2.7-1.9,4.2c-1,3.5-2.1,3.8-4.7,1.3c-2.7-2.6-5.4-4.8-9.4-2.7c-1.1,0.6-1.9-0.8-3.5-0.7
				c1.3,1.3,2.6,2.2,1.2,3.7c-0.7,0.7-1.7,1.2-2.3,0.4c-1.9-2.5-4.8-0.8-7.1-2.3c-0.2,2,0.9,3.6-0.4,5.1c-6,0-6,0-6-6
				c0-1.8,0-3.5,0-5.2c2.4-0.8,2.2-2.5,1.6-4.4c-0.9-2.9-0.5-5.4,2.8-6.5c1.5-0.6,2.3-1.8,3-3.1c2.3-4,2.1-9.2,5.7-12.7
				c0.2-0.2,0.3-0.8,0.2-1c-2.9-2.9-1.3-7.3-3.7-10.7c-2.2-3.2-1.5-7.8-0.1-11.2c1.1-2.6,1.4-4.9,1.2-7.4
				c-0.9-9.6-1.9-19.3-2.8-28.9c-0.6-6.4-1.1-12.9-1.8-19.3c-1.1-10.5-2.5-21-2.9-31.5c0-0.7-0.3-1.6,0.4-2.1c1-0.7,1.5,0.3,2.3,0.6
				c2,0.8,3.6,3.2,5.9,2.3c3.6-1.5,7.3-3,10.3-5.4c3.6-2.9,7.8-3.7,11.8-3.8c12-0.2,23.8-3.5,35.8-3.3
				C1367.1,350.4,1367.6,350.1,1368,349.5z"/>
		</g>
	</g>
	<g id="Missouri_xA0_Image_1_">
		<g>
			<path fill="#464646" d="M1171.5,408c5.5,0,11,0,16.5,0c1.8,2.8,4.2,5.4,6.2,7.9c1.6,1.9,1.5,2.8,0.7,4.4
				c-0.4,0.8-0.8,1.5-0.9,2.4c-1,7.6,2.4,14.3,6.4,19.9c2.7,3.9,6.5,7.9,11.1,10.6c4.9,2.9,8.9,6.9,8.2,13.5
				c-0.1,0.9,0.5,1.9,0.8,2.8c0.8,2.1,2,2.5,3.3,0.4c0.6-1,1.2-2.2,2.5-1.8c3.3,0.9,6.7,1.9,9.4,4.3c0.8,0.7,1.7,1.8,1,2.6
				c-3,3-1.9,7.3-3.3,10.8c-1.8,4.7-5.1,10.1,1.2,14.6c2.2,1.6,4.5,3.1,6.7,4.5c1.4,0.8,1.8,3,3.3,2.9c3.4-0.2,5.2,1.7,6.8,4.2
				c0.8,1.2,1.8,2.5,3.5,2.5c1.3,0,1.5,1,2.1,1.9c1.9,3,1.5,6.8,3,9.9c0.5,0.9,0.4,2.4-0.3,3.2c-1.6,1.6-0.6,2.4,0.1,4
				c0.8,1.6,1.3,4.6,2.6,4.6c3.6-0.1,5.1,2.6,7.4,4.2c0,4,0,8,0,12c-0.3,0.5-0.9,1-1,1.5c-0.5,2.4-0.8,5.2-4.2,2.2
				c-0.8-0.7-1.8-0.3-1.6,0.5c0.8,3.6-2.3,6-2.8,9.2c-0.5,3-0.2,7-1.6,8.8c-2.7,3.4-1.4,6.1-0.9,9.2c-1.5,0-3,0-4.5,0
				c-0.6-1.5-0.4-3.6-3.1-3.3c-4.2,0.4-8.5,0.3-12.7,0.8c-2.9,0.3-3.2-1-3-3.2c0.3-3.1,2.7-4.9,4.4-7.2c1.1-1.5,3.2-3,1.9-4.7
				c-1.4-1.9-2.1-4.6-6.1-4.4c-24.4,1.2-48.8,1.9-73.3,2.7c-10.6,0.4-21.2,0.6-31.8,1c-6.8,0.3-13.7,0.8-20.5,1.1
				c-1.8,0.1-4.1,0.9-4.3-2.5c-0.2-6.2-0.5-12.4-0.6-18.5c-0.6-24.5-0.1-48.9,0-73.4c0-3.4,0.4-7-4.5-7.4c-0.6-0.1-1.1-1-1.6-1.5
				c-3.9-3.5-4.7-9.2-9-12.3c-0.4-0.3-0.6-1.3-0.4-1.7c1.5-2.5,3.2-5,4.9-7.5c0.3-0.5,1.7-0.1,1.4-1.2c-0.2-1.1-1.4-0.9-2.2-1
				c-4-0.4-10.2-5.2-11-9c-0.8-3.6-2.9-6.1-5.6-8.3c-0.7-0.6-1.4-1.1-1.2-2.1c0.7-3-2.7-4-3.2-6.5c0-1.8,0-3.5,0-5.2
				c10.9,0.2,21.8,1,32.7,0.5c15.5-0.7,31.1,0.8,46.6-1.1c5.9-0.8,11.9-0.5,17.9-0.6C1169.9,409,1171,409.2,1171.5,408z"/>
		</g>
	</g>
	<g id="South_Dakota_xA0_Image_1_">
		<g>
			<path fill="#464646" d="M1052.2,312c0,3,0,6,0,9c-1.8,0-1.4,1.4-1.5,2.4c-0.2,1.1-0.1,2.3-0.5,3.2c-1.5,3.5-3.2,6.9-2.5,10.9
				c-1.6-0.5-1.8-2.9-2.5-3.1c-7.3-2.5-13.1-9.6-22-7.6c-3.8,0.9-8.3-1.6-11.7,2.2c-0.6,0.7-1.7,0.3-2.5-0.2
				c-3.4-2.5-7.7-3.6-10.8-6.6c-1.3-1.2-2.6-1.7-4.3-1.7c-20.3-0.8-40.6-1.6-60.9-2.6c-10.3-0.5-20.6-1.1-31-1.8
				c-12.4-0.8-24.8-1.7-37.2-2.7c-6.8-0.5-13.6-1.4-20.3-2.1c0-4.5,0-9,0-13.5c0.4-3.1,1-6.1,1.3-9.2c1.2-13,2.3-26,3.3-39.1
				c0.8-10.4,2.6-20.7,3.1-31.2c0.3-6,1.3-12.1,2-18.1c7,0,14,0,21,0c2.5,1.9,5.5,1.4,8.2,1.5c16.5,0.8,32.9,1.8,49.4,3.1
				c9,0.7,18.1,0.9,27.2,1.3c16.6,0.8,33.3,0.8,50,1.7c12.5,0.7,25,0.2,37.5,0.1c2.7,0,3.5,0.9,3.4,3.5c-0.1,3.3-1.4,5.9-3.9,7.9
				c-2.7,2.1-3.4,4-0.8,7c1.8,2.1,4.1,3.1,6.1,4.6c0,24.2,0,48.5,0,72.8c-1.3,1.2-2.3,7-1.4,8.1C1051.1,312.1,1051.8,312,1052.2,312
				z"/>
		</g>
	</g>
	<g id="Colorado_xA0_Image_1_">
		<g>
			<path fill="#464646" d="M894,391.5c0,3.8,0,7.5,0,11.2c-0.6,1.3-0.7,2.6-0.9,4c-0.9,10.5-0.4,21-0.9,31.4c-0.4,7.7,0,15.4-0.9,23
				c-1.4,11.6-1.8,23.2-2.5,34.8c-0.7,11.1-1.8,22.3-1.9,33.5c-0.1,4.2,0.1,8.7-1.1,12.9c-5,0-10,0-15,0c-1.8-1.3-3.8-0.8-5.8-0.9
				c-5.2-0.1-10.4,0-15.6-0.3c-8.7-0.6-17.3-1.6-25.9-2.3c-6.2-0.4-12.3-1.2-18.5-1.7c-13.5-1.1-26.9-2.9-40.3-4.3
				c-10.2-1.1-20.4-2.2-30.6-3.4c-6.9-0.8-13.8-1.7-20.6-2.6c-6.6-0.9-13.3-2-19.9-2.5c-5.9-0.4-11.6-2.6-17.7-1.5c0-1,0-2,0-3
				c1.7-4.2,1.6-8.7,2.3-13c1.8-12,3.4-24,5-36.1c1.6-11.4,3.2-22.8,4.8-34.2c1.9-13.6,3.9-27.2,5.7-40.9c1.1-8.4,2.7-16.6,3.2-25.1
				c4,0,8,0,12,0c1.9,2.1,4.5,1.1,6.7,1.4c10.3,1.6,20.6,3,30.9,4.3c9.5,1.2,19,2.1,28.5,3.1c12.4,1.4,24.8,3.3,37.3,4.2
				c11.9,0.9,23.6,2.8,35.5,3.8c11.8,0.9,23.6,1.9,35.3,2.8C886.7,390.4,890.4,390.7,894,391.5z"/>
		</g>
	</g>
	<g id="Idaho_xA0_Image_1_">
		<g>
			<path fill="#464646" d="M663.8,230.2c0,4,0,8,0,12c-1,0.2-0.9,1-1.1,1.7c-1.3,7.7-2.6,15.3-3.8,23c-2.2,14.3-4.5,28.5-6.6,42.8
				c-0.7,5.2-2.3,10.3-2.1,15.7c-1.5,0-3,0-4.5,0c-0.4-0.3-0.8-0.7-1.3-0.7c-10.3-1.8-20.5-3.8-30.8-5.3
				c-16.4-2.5-32.6-6.4-49.1-8.4c-8-0.9-15.8-3.2-23.6-4.7c-16.3-3.1-32.4-6.7-48.6-10.2c-4.3-0.9-8.6-2.5-13.1-2.2
				c0-1.2,0-2.5,0-3.8c2.3,0.1,4.7,1.2,5.5-2.5c1.7-8.6,3.8-17.1,5.6-25.6c1.9-8.7,3.9-17.4,5.8-26c1.3-5.6,1.9-11.7,6.5-16.3
				c1.3-1.3,1.3-4.2,1.4-6.4c0.1-2-2.2-1.8-3.3-2.4c-1.6-1-1.7-2-1.9-3.6c-0.6-5.1,2.5-8.9,4.5-13.1c1.1-2.2,1.6-4.4,4.9-4.6
				c2.2-0.1,3.4-2.7,4-4.9c0.2-0.7-0.1-1.5,0.6-2.1c6.3-4.9,8.4-12.7,13.4-18.5c1.4-1.6,1.9-3.8,0.4-5.1c-2.7-2.5-3.8-5.9-5.9-8.6
				c-1.2-1.6-1.7-3.2-1.2-5.4c0.6-2.3,2.1-4.7,0.9-7.1c-1.6-3.4-1.2-6.7,0.2-10c0.7-1.6,1.1-3.3,1.5-5c6.7-28.7,13.3-57.5,19.9-86.2
				c0.8,0,1.5,0,2.2,0c0.3,0.6,0.9,0.8,1.6,0.8c6.8,1,13.4,2.6,20.1,4.4c2.4,0.6,2.2,1.5,1.7,3.4c-2.3,10.3-4.5,20.6-6.7,30.9
				c-0.5,2.5-0.4,4.8,1.1,7.2c1.4,2.2,2.4,4.7,3.3,7.2c0.8,2.1-0.3,4-0.7,5.9c-0.6,3.3,0.6,8.8,3.4,9.8c4.7,1.7,5.3,5.5,6.8,8.8
				c1.8,4.1,5.4,7.3,5.4,12.4c0,1.3,0.9,4.3,3.9,3.7c1.2-0.2,1.9,0.4,2,1.6c0.1,3.3,2.6,3.3,4.7,3c2.2-0.3,2.4,0.6,2,2.3
				c-1.5,5.3-4.8,9.8-6.5,15.1c-0.8,2.4-1.6,4.5-0.6,6.9c1.3,3,0.5,6.1-1.8,5.9c-3.1-0.3-2.5,1.6-2.4,3.3c0.1,1,1.3,2,0.1,3.1
				c-0.9,0.8-2.3,2.7-1.3,2.7c2.5,0,2,4.5,5.8,3c2.5-1,4.6-2.1,6-4.1c0.9-1.3,2.3-1.9,3-0.9c2,3.1,4.6,6.2,4,10.3
				c-0.8,5.4,0.1,10.5,3.7,14.7c1.8,2.1,1.8,3.8,0.9,6c-1.1,2.4,0.1,4.9,2.7,5.4c3,0.6,4.7,2.3,5.2,5.3c0.5,3.1,1,6.1,1.5,9.2
				c0.1,0.9,0.5,1.7,1.3,2.2c0.5,0.3,0.8,0.2,1.2-0.3c2.4-3.8,5.2-2.5,8.2-0.7c1.1,0.6,2.8,2.3,3.7,0.5c1.8-3.6,4.3-2.3,6.5-1.3
				c3.6,1.6,7.4,0.6,11.1,1.8c3.3,1,7.8,0.9,8.7-4.5c0.1-0.4,1.1-0.8,1.6-0.8c3.1,0,3.4,2.8,4.4,4.8
				C661,227.4,661.4,229.6,663.8,230.2z"/>
		</g>
	</g>
	<g id="Alaska_xA0_Image_1_">
		<g>
			<path fill="#464646" d="M160.8,898.2c-1.6,0-3.4-0.7-4.4,1.2c-1,1.9-2.8,2.4-4.3,1.7c-1.4-0.8-0.6-2.7-0.4-4.1
				c0.1-0.6,0.7-1.1-0.1-2c-2.1,0.9-4.2,2.2-7,1c0.3,0.8,0.3,1.2,0.5,1.4c0.6,0.6,2.4,0.3,2,1.6c-0.6,1.8-1.9,0.3-2.8,0
				c-3.7-1.2-3.7-1.3-3.7,3c-0.9-0.7-1.8-1.4-2.6-2c-0.1-0.1-0.2,0-0.6-0.1c-0.7,1.3,1,3.8-1.4,4.2c-1.6,0.3-2.7-1-4-1.9
				c-0.8-0.6-1.8-2.2-3.2-1c-1,0.8-2.2,1.5-0.9,3.3c0.7,1-0.4,1.6-1.4,1.2c-1.1-0.5-2.3,0.2-3.2-0.1c-4.1-1-7.7,0.6-11.2,2
				c-1.8,0.7-3.1-0.2-3.8-1.3c-0.9-1.4,0.1-2.7,1.3-3.8c4.1-3.8,8.7-5.2,14.4-5.4c1.9-0.1,6.5-0.2,7.4-4.3c6.2-0.9,8.9-8.1,15.5-8.6
				c2.2-0.2,4.4,2,6.8,0c0.6-0.5-0.3,2.1,1.6,2.7c2.3-8.7,10.5-10.7,17.3-14.1c1.9-1,2.9-1.7,3.9-3.4c1.5-2.5,3.5-4.7,6.2-6.2
				c1.9-1.1,3-2.9,3.8-5.2c1.5-5,1.6-10.5,4.8-15c0.9-1.3,1.9-2.5,3.2-4.1c-3,0.3-5.3,1.4-7.3,2.7c-2.1,1.3-3.4,0.9-4.6-1
				c-0.7-1.1-1.6-2.8-2.9-2.3c-1.6,0.6-0.8,2.3-0.5,3.6c0.3,1.1,0.6,2.4-0.6,3c-1.2,0.7-2.4-0.1-3.4-0.9c-1.3-1-1.3-2.6-1.9-4
				c-0.7-1.6-0.7-4.1-3.9-2.6c-0.6,0.3-3.4-0.2-4.1-2.3c-0.2-0.7-0.1-1.9-1.4-1.8c-1.1,0.1-1.9,0.7-2.3,1.7
				c-0.5,1.1-0.9,2.3-1.2,3.5c-0.3,1-0.4,2.2-1.7,2c-1.7-0.2-0.9-1.7-1.1-2.7c-0.1-0.5-0.1-0.9-0.1-1.8c-2,1.3-3.3,3.7-5.4,3.1
				c-1.6-0.4-3.7-0.5-4.7-2.5c4.6-1.5,5.2-2.9,3.2-7.5c-0.9-2-1.5-3.6,0.9-5c1.9-1.1,2-3,1.2-4.9c-0.9-2.4-1.8-4.9-2.7-7.4
				c-3.7,1.2-7,3.6-11.1,3.3c-2.7-0.2-4.7-1-5.6-4.3c-0.6-2.1-1.6-4.7-4.1-5.8c-2.3-1.1-2.6-3.8-4.1-5.6c-0.9-1.1,0.9-1.6,1.6-1.9
				c4-1.6,0-5.1,1.9-7.2c-5,0.2-3.9-4.6-5.6-7c-2.4-3.2-1-6.5,2.8-7.8c2.6-0.9-1.9-1.2-0.2-1.8c2.1-0.9,2.5-3.2,4-4.5
				c2.4-2,4.5-4.2,6.6-6.5c2.1-2.3,2.5-5.7,5.1-7.9c2.3-1.9,5.1-2.4,7.1-0.2c1.2,1.2,2.1,3.6,3.9,2.7c2.3-1.1,4-3.2,6-4.9
				c0.4-0.4,0.3-0.9-0.3-1.2c-0.9-0.5-2.1-1-0.8-2.1c0.9-0.8,2.1-1,3.2,0.3c1.1,1.3,2.4,2.3,4.2,2.6c4.3,0.8,8-2.8,6.9-7
				c-0.8-3,0.5-6.7-3.2-9c-0.9-0.5,1-2,2.6-1.7c1.4,0.3,2.6-0.2,3-1.6c0.3-1.3-0.6-2.7-1.5-3.2c-1.3-0.6-2.5,0.9-4,1
				c-2.1,0.2-4.1,1.6-6.1,2.5c-1.4,0.6-1.2,4.5-4.2,2.1c-1.2-1-2.9-0.9-4.3-2.4c-2.4-2.6-6-1.7-9.2-1c-3.4,0.8-13.3-3.7-12.7-6.5
				c0.9-4.1-2.6-7.1-1.5-10.8c0.4-1.2-0.7-1.4-1.3-1.9c-0.9-0.8-2.5-1.4-2.8-2.4c-0.6-1.8-4.3-2.3-2.5-4.5c0.6-0.7,2.9-1.9,4.6-2.1
				c2.6-0.2,4.6-1.5,6.3-3.3c0.3-0.4,0.6-0.8,1-1.1c2-1.1,5.2,1.7,5.8-0.1c1.2-3.6,4-0.6,5.7-2.3c1.5-1.4,4.3-1.2,6.6-1.8
				c0.2-0.1,0.5-0.1,0.7-0.1c1.6,0.3,3.8-0.8,4.8,1c1,1.8-1,3.2-1.9,4.4c-1.9,2.5-1.2,3.5,1.5,4c3.8,0.7,7.6,2.1,11.5,2.2
				c-0.3-4.7-0.4-9.1-3.6-12.6c-1-1.1-0.3-2.6,1.7-3.8c-3-0.1-5.2-0.7-7-2.1c-0.8-0.6-1.8-1.1-1.7-2.3c0.8-6.8-3.5-11.4-7.4-16
				c-2.3-2.7-4.3-5.7-7.4-7.6c-1.8-1.1-0.8-1.8,0.4-2.2c2.6-0.8,3.5-2.5,3.2-5c-0.3-2.6,1.3-2.6,3.1-2.1c3,0.9,5.9,1.2,9.1,0.6
				c5.3-1,8.6-3.7,9.6-9.2c1.1-5.8,9.3-14,13.1-13.1c4.4,1.1,6.7-1.5,9.3-3.9c1-0.9,1.8-2,2.8-2.9c1.9-1.7,2.8-1.6,4.7,0.1
				c0.4,0.3,1.2,0.4,1.7,0.3c3.6-0.4,6.8-1.3,8.5-5c0.7-1.4,1.6-2.8,2.4-4.1c1.8,0,3.5,0,5.2,0c-0.6,2,0,2.9,2.2,3.4
				c2.5,0.6,5.1,1.6,5.4,4.8c0.3,2.7,1.4,2.9,3.4,1.6c3.3-2,6.5-0.3,9.6,0.5c0.8,0.2,1.3,0.8,0.7,1.7c-2,2.9,1,2.8,2.3,3.7
				c1.4,1,2.4,3.2,4.6,2c1.6-0.9,2.8-1.9,4.6-0.3c0.4,0.4,2.1,0.3,0.7-1.3c-0.7-0.8,0.1-1,0.8-1c3.3,0.2,6.6-0.4,9.2,2.8
				c1,1.2,3.3,3.8,5.8,1.1c0.5-0.6,1.5-0.2,1.6,0.9c0.1,1.4,0.4,2.8,2.1,2c2.1-1-2-1.3-0.3-2.6c1.4,0.3,3,0.4,4.5,0.9
				c1.5,0.6,3.1,0.3,4.6,1.6c3.6,3.1,5.8,2.9,9.5-0.1c2.4-2,4.7-3.3,7.8-0.8c1.8,1.5,4.1,2.8,6.6,3.1c3.7,0.5,5.7,2.6,6.3,6.2
				c1.3,7.3,2.6,14.7,3.8,22c2.7,16.3,5.3,32.7,8,49c3.4,20.8,6.8,41.5,10.3,62.3c1.3,8.1,2.8,16.2,4.2,24.3
				c0.3,1.6,0.7,3.3,2.7,2.7c2.8-0.9,5.9,0.2,8.5-2.5c2.6-2.7,5.4-1.2,6.2,2.7c0.3,1.3,1.2,1.7,2,2.5c5.4,5.1,12.4,8.3,16.5,14.9
				c0.8-1.1,1.5-2.2,2.3-3.1c2.2-2.2,3.9-4.2,3.9-8c0-3.2,3.3-6.2,6.5-6.9c3.2-0.7,5.2,2.1,7.4,4.6c2.8,3.3,6,7,9.8,8.5
				c4.1,1.6,6.9,4.2,9.9,6.8c5.2,4.5,8.5,11,14.5,14.8c0.4,0.3,0.4,1.1,0.8,1.6c2,2.7,3.4,6.5,6.8,7.3c5.7,1.2,11.1,3.5,16.8,4.5
				c2.4,0.4,4.5,1.9,4.1,4.5c-0.7,3.8,1.1,6.4,3.1,9.2c0,2.5,0,5,0,7.5c-1.1,0.4-1,1.6-1.5,2.4c-2.4,3.6-4.7,3.5-6.7-0.2
				c-0.7-1.3-1.7-2.1-3-3.1c-0.5,1.8,0,2.9,1.3,3.9c0.7,0.5,0.8,1.2,0.1,1.9c-0.5,0.5-1.4,1.5-1.8,0.8c-0.9-1.7-3.5-0.9-4-3
				c-0.2-1-1.3-1.4-2-1c-0.8,0.5-1.2,1.6-0.8,2.6c0.6,1.4,1.3,2.6,1.8,4c0.3,0.8,1.2,2-0.1,2.6c-1.1,0.5-2.5,0.7-3.3-0.8
				c-0.4-0.8-0.6-2.2-1.8-1.9c-1.3,0.4,0,1.5-0.1,2.2c-0.4,1.8-1.3,3.1-3.4,2c-1.4-0.8-2.7-1.8-3.8-3c-1.7-1.8-2.6-4.6-6.2-3.9
				c-0.7,0.1-2.4-2.2-2.7-3.7c-0.4-1.5,1-1.5,2.4-1.5c1.6-0.1,0.8-1.7,0.3-2.6c-0.1-0.2-0.6-0.1-1-0.1c-6.9-1.4-9-3.9-9.9-11.1
				c-0.2-1.4-1.7-2.8-2.7-4c-0.8-0.9-1.2-1.6-0.8-3c1.1-3.7,4-6.2,7.8-6.4c0.4,0,0.7-0.2,1.4-0.3c-4.3-1.1-1.7-7.7-7.3-8
				c1.8,4.2,0.5,8.5-2.7,10.5c-4.1,2.6-1.6,4.6-0.5,6.7c1.3,2.4,0.8,5.1,2,7.4c0.3,0.7,0.6,1.6-0.2,2c-0.9,0.5-1.7-0.1-2.3-0.8
				c-1.7-2.1-3.1-4.7-5.2-6.3c-2-1.6-3.3-3.1-3.5-6c-1.1,0.9-1.8,1.6-2.6,2.2c-0.8,0.5-1.7,0.2-1.7-0.6c0.3-5.7-3.9-8.4-7.4-11.7
				c-2.3-2.2-2.3-5.3-2-8.7c-2.9,3.2-5.4,0.4-7.8-0.5c-3.6-1.4-7.1-3.3-9.9-6.4c-2.6-2.9-6.7-3.4-10.3-4.9c-3.8-1.6-9-2.2-6.9-9.1
				c-4.7,4.5-9.5,5.2-14.7,2.7c-0.9-0.5-0.9-0.6,0-3.9c-2.5,2.9-5,1.8-7.6,1.3c-2.9-0.6-5.8-0.7-8.4,0.8c-3.8,2.1-9,0.5-11.8,4.9
				c-0.3,0.4-0.9,0.5-1.3,0.1c-0.7-0.5-0.3-1,0-1.6c0.6-1.4,2.6-1.6,2.7-3.3c-4.9-0.7-4.9-0.7-5.9-6.7c-1.2,0.4-1.4,1.6-2,2.5
				c-1,1.2-1.8,2.1-3.6,0.6c-2.9-2.3-5.3,0.1-7.7,1.6c-0.9,0.5-1.4,2.2-2.7,1c-0.6-0.5-1.1-1.5-1.1-2.3c0-1.2,0.9-2.1,2.2-2.1
				c1.3,0,2.7-0.7,2.6-1.7c-0.2-1.4-1.7-0.8-2.8-0.8c-1.1,0-1.8-0.5-1-1.9c0.7-1.3-0.9-1.8-1.5-2.6c-0.9-1.2-1.5,0.1-2.1,0.5
				c-0.5,0.3-0.9,1.2-1.5,0.9c-4.4-2.4-4.2,2.9-6.6,4c-0.9,0.4,0.6,1.9,1,1.9c4.8-0.1,2.6,3.1,2.4,5.2c-0.1,1-0.6,2-1.1,3.4
				c2.4-1.3,3.2-3.3,4-5.3c0.3-0.8,1-1.6,2-0.9c0.7,0.4,1.8,1.3,1,2.1c-2.5,2.3-2.2,6.3-5.2,8.3c-1.5,1-2.3,1.9-3.1-0.7
				c-0.4-1.3-2.7-1.7-3.8-1c-1.7,1-3.2,0.7-4.9,0.6c-4.3-0.3-4.8,2.6-4.2,6c-3.8-1.2-7.9,1-9.7,4.8c-0.3,0.6-0.7,0.9-1.3,1.2
				c-2.1,1.1-4.5,1.1-6.7,2.7c-2,1.5-4-1.4-5-3c-1.1-1.7,0.7-2.7,2.4-3.3c1.1-0.4,2.5-0.6,3-2c-1.2-0.9-2.5-1.6-3.5-2.7
				c-1.3-1.4-1-3,0.1-4.5c2.6-3.5,4.6-7.1,3.1-11.6c-0.1-0.2,0-0.5,0-0.7c0.4-2.2,8.6-6.6,10.7-5.6c0.8,0.4,1.8,1.2,2.2,0.1
				c0.5-1.2-0.4-1.7-1.6-1.7c-0.4,0-1,0.1-1.1-0.1c-2.9-5.9-5.3-1-7.3,0.7c-5.5,4.5-9.5,10.1-12.2,16.8c-1.1,2.8-3.8,4.6-5.2,7.4
				c-0.7,1.5-3,0-3.6,0.7c-2.2,2.4-4.2,5.1-5.9,7.8c-0.7,1.1,0.5,1.4,1.4,1.4c1.5,0,2.6,0.6,3.8,1.4c1.4,0.9,2.8,1.7,2.6,3.7
				c-0.3,1.9-1.7,2.9-3.2,3.3c-2.5,0.6-4,2.2-4.3,4.6c-0.6,4.6-4.3,6-7.6,7.1c-3.3,1.1-5.1,3.8-7.7,5.7c-1.1,0.8-2.2,2.6-3.6,3.5
				c-1.9,1.2-3.6,2.3-3.5,4.7c0.1,2.9-3,3.5-3.9,3.7c-3.1,0.6-1,1.7-0.7,2.8c-1.5,0.5-2.8-0.4-4.3-0.2c-1.4,0.2-2.6-0.5-1.7,1.7
				c0.3,0.6-0.3,1.1-0.7,0.9c-3.8-1.5-5.4,4.4-9.3,2.1c0,0.9-0.1,1.2,0,1.4c0.7,1.4,1.4,2.9,2.1,4.3c-2.5-0.5-2.8,3-5,2.8
				c-3.8-0.3-6.6,1.5-9.1,3.9c-1,1-1.5,3.2-3.4,1.9c-1.4-1,1.3-2.4-0.3-3.9c-2.9,1.5-6,3.2-9.1,4.9c-0.6,0.3-0.2,0.8,0,1.2
				c0.6,0.9,1.5,0.8,1.9,0.3c3-4.2,3.5-0.3,4.8,1.3L160.8,898.2z"/>
			<path fill="#464646" d="M0.8,916.5c1.6,0.4,1.2-1.1,1.8-1.7c1-1.1,2.3-1.6,3.6-0.6c1.2,0.9,2,2,0.6,3.4c-2,2-0.5,2.5,1.2,2.7
				c2.2,0.3,4,1.8,6.3,1.9c0.7,0,1.9,0.5,1.5,1.7c-0.4,1.1-1.6,0.8-2.3,0.6c-2.6-0.9-5.2-1.7-7.5-3c-1.7-1-3.3-1.4-5.2-1.3
				C0.8,919,0.8,917.8,0.8,916.5z"/>
			<path fill="#464646" d="M222,861.4c-0.1-2.2-0.2-4.4,2.8-4.5c0.8,0,1.2-0.7,1.3-1.1c1.4-4.6,7-6,8.2-10.7c0.3-1.1,1-1.3,2-1.1
				c1,0.2,1.9,1.1,1.3,1.8c-1.9,2.6,0.9,2.2,1.8,3.1c0.6,0.7,2.3,0.4,1.9,1.9c-0.3,1-0.8,2.2-2.3,2c-1.2-0.2-1.7,1-2.6,1.3
				c-0.9,0.3-2.3,0.3-2,1.6c0.3,1.4,1.4,0.2,2.1,0.3c0.6,0.2,1.1,0.6,1.1,1.4c0.1,2.1-0.1,4.2,1,6.3c0.3,0.6,1.1,4-2.6,3
				c-0.8-0.2-4,1.7-4.9,4.3c-0.4,1.1-1.5,4.4-4,1.3c-0.2-0.2-0.6-0.2-0.9-0.3c-0.4,1.7-1.5,3.1-2.7,4.4c-1.2,1.3-2.8,1.8-1.4,4.2
				c0.8,1.4-0.9,2.2-2.4,2.2c-1.4,0.1-2.7,0.1-4.1,0.2c-1,0.1-1.7,1.7-3,0.8c-0.5-0.4-0.3-1.2,0.1-1.7c0.9-1.1,1.4-2.9,3.2-2.8
				c1.2,0.1,2.5,1,3.1-0.8c0.6-1.7-0.8-2.2-1.8-3.1c-1.1-1-1.8-2.4-1.8-4c0-0.7,0.6-1.7-0.1-2.1c-2.7-1.8-2.1-3.7-0.4-5.8
				C216.9,861.1,219.2,860.5,222,861.4z"/>
			<path fill="#464646" d="M59,924.6c2.5-4,6.2-6.3,9.4-9.2c2.8-2.6,5.4-1.6,6.5,1.9c0.3,0.9,0.8,0.7,1.4,0.8
				c3.4,0.6,6.3-1.6,6.6-5.1c0.2-2.6,1.6-3.7,4.1-3.7c2.3,0,4.1,1.3,5.8,2.4c2.2,1.5,1.3,3.4-0.8,5c-4.4,3.3-9.9,2.9-14.7,5
				c-0.9,0.4-2,0.1-2.8-0.7c-2.2-2.3-4.1-1.3-6.1,0.3C65.7,923.4,62.9,925.4,59,924.6z"/>
			<path fill="#464646" d="M86.2,735.1c-0.3-1.7,0.7-2.9,2-3.7c2.1-1.2,1.3,1.6,2.2,1.9c1.8,0.6,3.2,2.3,5.5,1.2
				c1.9-0.9,4.2-0.4,4.6,2.2c0.6,3.9,3.4,5.1,6.4,6.5c1.2,0.5,3.6,0.7,2.9,2.5c-0.6,1.6-2.3,3.1-4.5,1.7c-1.8-1.2-2.4,0-3.1,1.3
				c-0.9,1.6-1.6,1.6-2.6-0.1c-1.7-2.8-3.3-5.7-5.5-8.3c-1.2-1.4-1.9-1.8-3.6-1.4C87,739.8,86.2,738.9,86.2,735.1z"/>
			<path fill="#464646" d="M116.1,810.5c-1.2,0.1-1.2-0.7-1.7-1.1c-1.9-1.5-3.3-3.5-5.6-4.8c-1.4-0.7-2.7-2.4-2-4
				c0.9-2.1,2.6-0.4,3.8,0c1.5,0.5,3,0.9,4.2-0.1c2.5-2,4.5-0.6,6.4,0.9c1,0.8,0.4,6.8-0.8,7.4C119,809.6,116.9,808.7,116.1,810.5z"
				/>
			<path fill="#464646" d="M109.6,909.8c-1.5,2.7-2.8,3.9-5.5,2.9c-2.2-0.8-4.3-2.5-7.2-1.2c-1.1,0.5-2-1.3-1.6-2.7
				c0.2-1,1.3-1.6,2-1.1c1.7,1.2,4.2-3,5.2,0.6c1,3.8,2.9,2.9,5.2,1.6C108.1,909.8,108.7,909.9,109.6,909.8z"/>
			<path fill="#464646" d="M61.7,778.6c0.8,0.1,0.8,0.6,1,1c1,2.2,1,4.8,3.6,6.1c0.5,0.3,0.6,1.6-0.5,1.6c-1.9,0-3-1.6-4-3
				c-1.2-1.6-1.5-3.3-0.9-5.2C61.1,778.9,61.6,778.8,61.7,778.6z"/>
			<path fill="#464646" d="M51,923.4c-0.2,0-0.7-0.1-1.2,0c-0.8,0.1-1.3,2-2.4,0.6c-0.5-0.6-0.3-1.5,0.3-2.1c0.7-0.6,1-2.2,2.6-1.2
				c1.7,1,2.2,0.1,2.4-1.5c0.1-0.6,0.6-1.2,1.3-0.8c0.6,0.3,0.9,1.3,0.4,1.5C52.7,920.6,54.9,924.8,51,923.4z"/>
			<path fill="#464646" d="M160.7,898.3c2.5,2.8,1.1,5.7-3.6,7.4c-0.7-3.5,2.5-5,3.7-7.5C160.8,898.2,160.7,898.3,160.7,898.3z"/>
			<path fill="#464646" d="M164.7,900.1c1.2,2,2.1,3.6,3.1,5.3c0.3,0.5,0.9,1,0.1,1.6c-0.4,0.3-1.2,0.6-1.3,0.5
				c-1.2-1.4-1.9-3.1-3.6-4.2C162.4,902.7,164,901.3,164.7,900.1z"/>
		</g>
	</g>
	<g id="california">
		<g>
			<a xlink:href="states/california/" target="_top">
			<path fill="#0e81ad" stroke="#157E9B" stroke-width="3" stroke-miterlimit="10" d="M509.2,593.2c0,2,0,4,0,6
				c-2.4,1.8-4.9,3.3-8,3.6c-1,0.1-2.4,0.5-2.5,1.3c-0.2,2.4-2,3.3-3.4,4.7c-1,0.9-1.4,1.9-1.4,3.3c0.1,5.4-1.7,10.4-5.3,14.1
				c-2.6,2.7-3.5,5.4-4,8.9c-0.4,2.7-0.6,4.4,2.5,4.8c0.8,0.1,1.4,0.4,1.6,1.3c0.5,3.3,2,6.9-1.4,9.7c-0.7,0.6-0.9,1.4-0.6,2.4
				c-3,0-6,0-9,0c-1.2-1.4-2.9-1.5-4.4-1.8c-6.2-0.8-12.4-1.4-18.6-2.1c-5.4-0.6-10.9-1.2-16.3-1.9c-10.7-1.3-21.5-2.9-32.2-4
				c-2.7-0.3-4.4-0.7-3.5-3.9c0.4-1.3,0.1-2.6-1-3.4c-1.4-1.1-1.2-2.2-0.7-3.7c2.4-6.8,0.7-13.2-2.3-19.4
				c-3.7-7.7-10.2-13.3-15-20.3c-1.2-1.7-2.7-2.2-4.9-1.8c-3.7,0.5-4.9-1.2-3.7-4.8c1.2-3.6-1-7.9-4.8-8.3c-3.4-0.4-6.1-1.6-8.7-3.7
				c-1.5-1.2-3.4-1.9-5.1-3.1c-1.3-0.9-3.4-1.8-3.1-3.4c0.7-4.2-2.9-5.7-4.8-8.2c-3.5-4.7-9.6-4.8-14.3-7.5c-3.1-1.8-6.7-2.8-10.3-3
				c-4.2-0.2-4.9-4.2-7.6-5.9c-1.6-1.1-1.6-2-0.8-3.4c0.7-1.1,0.7-2.5,1.3-3.4c2.1-3.1-0.7-6.8,1.7-9.9c2.1-2.8,2.5-5.6-1.3-8.1
				c-2.2-1.4-5.5-4.1-1.5-7.5c0.6-0.6,0.8-1.4,0.1-2c-3.1-3-4.4-7.2-6.9-10.4c-2.9-3.7-3.5-8.1-5.1-12.2c-1.9-4.7-2.6-9.9-6.1-13.9
				c-2.5-2.8-3.3-11.6-1.5-14.8c0.2-0.4,0.6-1.1,0.9-1.1c4.4,0.1,4.1-4.1,5.7-6.4c1.9-2.8,0.1-5.8-3.4-5.9c-3.4-0.1-5.3-1.5-6.1-4.8
				c-0.4-1.5-1.4-2.9-2-4.4c-0.7-1.5-1.9-3-1.2-4.6c2.6-6-0.2-12.6,2.2-18.6c0.7-1.6,0.4-3.8,2.9-3.4c2.2,0.4,2.5,2.8,1.9,4.2
				c-2,4.7,1.5,6.5,4.1,9.5c0.6-5.4-2.5-9.6-2.1-14.4c0.1-1.1-2-3.8-3.5-2.3c-3.6,3.5-4.8,0.1-6.2-1.8c-1.5-2.2-2.5-4.8-5.1-6.3
				c-1.5-0.8-1.6-2.5-0.6-3.6c2.3-2.5,1.3-5.1,0.4-7.7c-3.4-9.2-7.8-18-12.4-26.6c-0.5-1-1.3-2.3-0.4-3.2c2.5-2.7,1.4-5.8,1.4-8.9
				c0-3.6,0-7.2,1.9-10.5c3.3-5.6,3.4-11.6,1.2-17.5c-1.8-4.9-2-10.6-6.8-14.1c0-3.5,0-7,0-10.5c3.9-3.1,6.8-7.3,11-10.3
				c1.4-1,3.9-3.7,3.2-6.7c-0.5-2.2,0.4-3.9,1.6-5.5c2.4-3.3,3.7-7.2,4.2-11c0.5-3,2.1-6.5,0.2-9.4c-1.9-3-1-5,1.1-7.2
				c0.8-0.9,1.3-2.1,1.9-3.1c1.8,0,3.5,0,5.2,0c1.5,1.6,3.7,1,5.6,1.7c6.9,2.4,13.8,4.6,20.8,6.7c6.6,2,13.3,3.5,19.9,5.4
				c7.5,2.1,14.8,4.6,22.3,6.6c12.1,3.2,24.3,6.2,36.4,9.3c2.2,0.6,3.3,2,2.7,4.5c-3.6,13.9-7.1,27.8-10.7,41.7
				c-5.5,21.6-11.1,43.1-16.6,64.7c-0.3,1.3-0.5,2.4,0.3,3.6c4,6,7.9,12,12,17.9c7.5,11.2,15.2,22.3,22.6,33.6
				c6.5,9.8,12.9,19.7,19.4,29.5c7.5,11.2,15.1,22.4,22.6,33.6c7.5,11.2,14.5,22.8,22.4,33.7c7.5,10.5,13.2,22.3,22.3,31.7
				c0.4,0.4,0.5,1.5,0.2,2.1c-1.6,3.7-0.1,6.8,2.1,9.6c0.9,1.1,1,2.2,1,3.5C502.8,586.1,504.5,590.4,509.2,593.2z M303.5,400.3
				c-1.2-1.6-2-3-4-2.5c-1.8,0.4-2,1.8-2.2,3.6C299,399.4,301.1,401,303.5,400.3z"/>
			</a>
		</g>
	</g>
</g>
<g id="Light_1_">
	<g id="Maine_xA0_Image_1_">
		<g>
			<path fill="#555555" d="M1749.8,229.5c-0.8,0-1.5,0-2.2,0c-2.3-2.9-3.6-6.6-7.4-8c-0.7-0.3-1.6-1.7-1.5-2.5
				c0.4-4.3-2-7.6-3.2-11.4c-5.8-18.5-11.5-36.9-17.2-55.4c0-1.2,0-2.5,0-3.8c1.9-2.8,3.8-0.6,5.6,0.2c1.5-2.2-1.8-5.8,2.4-6.8
				c-0.1-0.2-0.1-0.5-0.2-0.7c-1.4-3.5,0.5-6.1,2.5-8.5c2.5-3.1,1.2-7.5,4-10.5c0.2-0.2-0.1-1.2-0.5-1.7c-3.5-4.1-1.5-9.2-2.2-13.7
				c-0.1-0.4,0.3-1,0.6-1.3c3-2.6,2.4-5.7,1.6-9c-0.5-2.3-1.2-4.5-0.3-6.9c3.4-9.6,6.8-19.3,10-28.9c0.9-2.8,3-2.1,4.9-2.2
				c2.2-0.2,2.2,1.3,2.3,2.9c0.4,4.1,3.9,5.6,7.1,3.2c1-0.7,2.3-1.2,3-2.2c1.8-2.7,6.2-2.8,6.5-6.9c2,0,4,0,6,0
				c0.3,0.7,0.8,1.3,1.6,1.5c6.7,1.6,11,5.4,12.5,12.3c0.8,3.6,2,7.2,3.2,10.7c2.8,8.8,5.5,17.6,8.4,26.4c0.5,1.6-1.4,4.3,1.3,4.7
				c2,0.2,3.6,1.7,5.7,1.5c1-0.1,2,0,3,0.1c1,0,2,0.7,1.8,1.5c-0.9,3.5,2.4,5.8,2.2,9.2c-0.2,2.7,2.8,4.3,5.3,3.2
				c1.6-0.7,2.7-0.4,4,0.8c2.6,2.4,5.4,4.6,8.2,6.9c0,1.5,0,3,0,4.5c-1.3,1.1-1.8,2.7-2.4,4.2c-1.2,2.7-3.1,3.2-5.6,1.9
				c-0.4,1.1,0.9,3-0.4,3.1c-3,0.1-3.3,2.9-5.1,4.1c-0.8,0.6-1.6,1.2-2.7,1.2c-3.6-0.1-4.7,2.4-5,5.1c-0.2,1.8-1,2.8-2.3,3.4
				c-1.7,0.7-2.5-0.8-3.1-1.9c-0.4-0.8-1.1-2.1-1.6-1.2c-1.4,2.5-3.5,3.5-6.1,4.4c-1.1,0.4-0.6,2.5-0.1,3.8c0.6,1.6,0.1,2.9-1,4.1
				c-0.7,0.7-1.9,1.1-2.1,0c-0.4-1.9-1.9-1.8-3-2.1c-2.2-0.6-2.6-2.1-2.4-4c0.1-1.1,0.8-2.1,0.1-3.5c-2,1.6-3.8,4.1-3.1,5.9
				c1.4,3.4,0.1,6.4-0.1,9.5c-0.1,1.1-0.1,2.1,0.4,3.3c1.3,3.3-1.2,6.6-4.7,6c-2.5-0.4-3.4,0.1-3.6,2.8c-0.4,4.3-2.9,5.2-6.3,2.7
				c-0.6,0.8,0.1,1.4,0.2,2.1c0.6,3.7,0.1,3.7-3.6,4c-2.1,0.1-6-0.8-5.8,4.1c0.1,1.4,0.3,4-1,5.2c-3.3,3.2-1.7,8.7-5.8,11.7
				c-1.7,1.3-2.1,4.2-1.3,6.6C1751.3,226.7,1750.7,228.1,1749.8,229.5z"/>
		</g>
	</g>
	<g id="Rhode_Island_xA0_Image_1_">
		<g>
			<path fill="#555555" d="M1729.5,280.5c0-3,0-6,0-9c4.5,0,9,0,13.5,0c1.1,1.6,1.5,3.3,1.4,5.2c-0.1,0.8-0.2,2.3,0.8,2.2
				c3-0.5,5.4,2,8.3,1.6c0,3.2,0,6.5,0,9.8c-6.1-0.4-6.4-0.6-5.7-4.7c0.2-0.9,1-2-0.2-2.7c-0.5-0.3-1.3-0.3-1.8,0
				c-1.1,0.7-0.7,1.7-0.4,2.7c2.5,6.4-0.9,10.2-5.9,13.3c-0.6,0.4-1.3,0.8-1.9,1.2c-1.2,0-2.5,0-3.8,0c1.2-4.9-1.6-9.3-1.8-14.1
				C1732.1,284.8,1732.7,281.1,1729.5,280.5z"/>
		</g>
	</g>
	<g id="New_York_xA0_Image_1_">
		<g>
			<path fill="#555555" d="M1512.8,314.2c0-1,0-2,0-3c1.7-0.9,3.5-1.9,4.7-3.6c4-6,10.2-10.1,13.9-16.5c1.9-3.2,2-5.1,0.1-7.5
				c-1.3-1.6-2.6-3.2-3.9-4.8c-3.2-3.7-2.6-8.1,1.8-10.3c0.4-0.2,0.8-0.6,1.2-0.8c9.4-5.8,19.9-7.3,30.1-4.7c4.7,1.2,7.4,0.3,11-1.6
				c1.6-0.8,3.8-1.1,5.8-0.9c3.7,0.5,6.4-1.1,8.7-4c3-3.7,5-8.7,10.8-9.2c1.1-0.1,1.4-1.6,1.3-2.8c-0.1-2.7-0.7-5.3-2.4-7.4
				c-1.8-2.1-1.2-3.4,0.9-4.3c1.8-0.8,1.6-1.6,0.5-2.7c-1-0.9-1.4-2.7-3.4-2.3c-1.6,0.3-2.6-1-3.1-2.3c-0.5-1.2,0.4-2.4,1.4-3.2
				c1.5-1.2,2.5-2.6,3.3-4.3c0.7-1.6,2.1-2.9,3.8-3.3c1.6-0.4,2.3-1.6,2.7-2.8c3.1-7.9,8.3-14.3,13.3-21c4.8-6.4,11.2-7.9,17.8-9.1
				c5.5-1,10.8-2.5,16.2-3.8c2.7-0.6,6.2,0.1,8.3-2.6c2.5,0,5,0,7.5,0c0.2,0.6,0.4,1.2,0.4,1.8c0.5,6,1.7,11.8,3.9,17.6
				c1.2,3.2,3.4,7,1.7,10.7c-2.1,4.4,0.1,7.8,1.8,11.5c1.8,3.9,2.6,8.4,6.5,11.1c0.7,0.5,0.8,1.8,1,2.8c1.4,6,2.9,12,4.2,18.1
				c0.6,2.9,1.8,5.9,1.4,8.6c-1.7,12.1-1.8,24,1.2,35.8c1.9,7.2,1.2,15.1,5.9,21.5c0.6,0.9-0.5,1.8-1.1,2.6c-1,1.4-3.2,3.3-2.8,4.1
				c1.8,3.8-1.8,5.8-2.4,8.8c-0.2,0.9-1.6,1.7-0.6,2.6c1.1,0.8,2-0.4,2.9-1c1.3-1,1.5-3.1,3.6-3.6c4.4-1.2,8.8-2.5,12.1-5.9
				c0.7-0.8,1.7-0.9,2.7-1.1c5.2-0.9,10.2-2.2,13.2-7.3c0.5-0.8,1.1-1.7,2.5-1.6c0.9,3.2-2.6,4.9-2.7,7.7c1.3,0.3,2.6,0.8,3.5-1
				c1.7-3.6,4.9-5.1,8.6-5.6c0,0.8,0,1.5,0,2.2c-10.2,8.5-21.4,15.2-33.6,20.3c-2.6,1.1-4.9,3.3-7.6,3.9c-2.2,0.5-4.5-0.1-6.1,2.1
				c-1,0-2,0-3,0c0-6.2,0-12.4,0-18.6c-1.7,2.4-1.6,2.2-4.9,1.3c-9.4-2.7-18.6-5.7-27.6-9.6c-2.5-1.1-4.6-2.1-4.9-5.3
				c-0.1-1.2-0.6-2.5-1.3-3.4c-2.7-3.3-7.5-3.6-10-7.1c-0.1-0.2-0.7-0.2-1.1-0.1c-5.1,1-10.2,2-15.3,3c-8.9,1.8-17.7,3.6-26.6,5.3
				c-6.5,1.3-13,2.3-19.4,3.6c-8.6,1.7-17.2,3.6-25.8,5.3c-6.9,1.4-13.8,2.9-20.8,4.1c-3.1,0.5-6.5,1.8-9.5,0.5
				c-2.5-1.1-1-4.4-2.2-6.4C1512.8,314.5,1512.8,314.4,1512.8,314.2z"/>
		</g>
	</g>
	<g id="Maryland_xA0_Image_1_">
		<g>
			<path fill="#555555" d="M1655.2,483c-4.7-9.3-3.7-18.2,2-26.7c1.4-2.1-0.5-4.2,0.5-6.5c-1.1,0.5-2,0.7-2.7,1.1
				c-2.2,1.4-3.6,0.9-3.1-1.8c0.2-1.4-0.5-2.5-1.1-2.9c-1.8-1.4-3.6-2-1.4-4.9c0.6-0.8-2.7-1.5-4.2-0.9c-4.3,1.5-6.5-1.9-9.2-3.8
				c-2.3-1.6-1.4-4.2-0.1-6.3c1.5-2.3,1.8-4.1-1.2-5.6c-1.9-1-2.7-2.9-0.4-4.7c1.4-1.1,2.1-2.3,0.6-4c-1.6-1.7,0.7-3.1,0.9-4.8
				c-4.5,0.3-5.4-2.5-3.5-10.6c-3.2,0.4-4.3,1.6-5.4,5.2c-1.1,3.7,0.9,5.6,1.3,8.3c0.1,0.5,0.6,1.1,0.5,1.3c-2.6,3.1,0.5,6.7-1,10
				c-1.1,2.7,2.4,9.4,5.1,10.9c1.1,0.6,2,1,1.8,2.4c-0.2,1.7-1.8,0.6-2.9,1.3c3.3,2.3,6.7,4.6,6,9.4c-6-1.6-11.8-3.2-17.7-4.9
				c-0.5-0.1-1.1-0.2-1.4-0.5c-2.4-2.5-4.7-4-7.7-0.5c-0.7,0.9-2.6,0.2-2.8-1.8c-0.3-3,0.5-6-0.2-9c-0.3-1.1,0.9-1.4,1.6-1.8
				c2.4-1.5,1.7-4.2,2.4-6.4c0.3-1.1-1-1-1.8-1.2c-4.2-1.4-8.4-3-12.6-4.5c-1.2-0.4-2.6-1.5-2.4-2.6c0.6-3.1-0.9-3.3-3.4-3.5
				c-2-0.2-3.3-1.7-4.5-3.8c-1.8-3-3.3-6.5-8.2-7.2c-5.3-0.7-8.5,1-11.3,4.9c-1.5,2.1-5.5,2.5-8.8,0.6c-0.6-0.3-1.2-1.3-1.7-0.3
				c-1.5,3-1.5,7.3-6.6,6.7c-1,3.9-5.1,5.2-7,8.4c-0.7,1.1-1.4,2.5-3.1,2.3c-1.9-0.3-0.9-2-1.4-3c-1.6-4.1-0.8-8.7-3-12.6
				c0-1.2,0-2.5,0-3.8c5.3-0.4,10.4-2.2,15.7-2.7c6.9-0.7,13.7-2.4,20.4-3.7c8.7-1.8,17.5-3.4,26.1-5.4c8.4-2,17-3.1,25.4-5.3
				c2.8-0.7,6,0,8.4-2.3c3,0,6,0,9,0c-0.3,1.7,1.2,2.7,1.5,4.2c0.9,4,2.1,8.1,3.4,12c1.5,4.3,2.8,8.6,3.7,12.9
				c0.9,4.2,3,8.1,3.6,12.4c0.1,1,1.7,3.2,3.6,2.6c3.2-0.9,6.4-0.5,9.6-0.5c2.6,0,4.5-0.1,4-3.5c-0.2-1,0.3-1.7,1.3-1.8c0,2,0,4,0,6
				c-1.5,3-2.7,6.6-2.9,9.3c-0.4,5.1-3.1,9.1-3.9,13.9c-1.7,10.3-9.5,18.9-8.1,30.1C1656.2,483,1655.8,483,1655.2,483z"/>
		</g>
	</g>
	<g id="North_Carolina_xA0_Image_1_">
		<g>
			<path fill="#555555" d="M1602.8,619.5c-0.8,0-1.5,0-2.2,0c-11.2-8.1-22.3-16.3-33.6-24.3c-1.9-1.4-3.8-4.1-6.3-3.3
				c-4.8,1.6-9.8,1.4-14.7,2.2c-4.8,0.8-9.7,2.1-14.7,2c-1.7,0-2.9,0.1-3.5-2.3c-0.8-3.5-4-5.1-7.6-4.6c-1.4,0.2-2.6,0-2.6-1.7
				c0-2.1-1.3-2.1-2.8-1.8c-3.8,0.9-7.5,1.2-11.4,1.3c-6.9,0.2-13.8,2.1-20.8,1.6c-0.7,0-1.5,0.3-2.1,0.7c-6.6,4.8-15,5.9-21.7,10.6
				c-0.6,0.4-1.1,0.3-1.7,0.2c-7.7-0.7-15,1.7-22.6,2.3c-4.7,0.4-9.3,1.7-14,0.5c0-3,0-6,0-9c1-1.1,2.3-1.2,3.7-1.2
				c3.6,0,4.6-1.6,3.1-4.9c-0.5-1.1-0.6-1.9,0.1-2.8c2.5-3.3,5-6.6,9.7-6.5c4.7,0.1,7.9-2.7,10.9-5.5c2-1.8,3.9-3.7,6.6-4.4
				c1.9-0.5,3.1-1.5,2.8-3.7c-0.2-1.4,0.3-2.8,1.8-2.7c2.5,0.1,2.7-1.6,3.2-3.3c0.9-2.8,3.8-3.9,5.3-1.9c2.6,3.4,3.1,0.6,3.6-1
				c0.6-1.8,1.7-3,3.3-3.8c2.4-1.2,5.4-1.2,7.6-2.1c2.1-0.8,3-4.5,4.4-6.9c0.2-0.4,0.8-0.7,1.2-0.8c3.1-0.8,3.3-3,3-5.6
				c-0.3-3.3,1.3-6.1,4.5-6.1c10,0,19.7-2.1,29.5-3c11.2-1,22.2-3,33.3-4.9c7.8-1.4,15.5-3,23.2-4.5c3.3-0.6,6.6-1,9.8-1.8
				c5.9-1.3,11.7-3.1,17.6-3.9c5.9-0.8,11.5-2.8,17.4-3.6c6.6-0.9,12.9-3,19.5-4.2c2.7-0.5,5.5-0.8,7.9-2.4c3.2,0,6.5,0,9.8,0
				c-0.6,1.4,3.5,2.9-0.1,4.3c-0.8,0.3-2.2-0.6-2.4,0.9c-0.1,1.1,0.5,2.1,1.8,2.5c1.3,0.4,1.6,1.8,2.4,2.8c1.1,1.2,0.3,4.8-1.1,5.4
				c-1.5,0.6-3.6-2.5-3.8-0.8c-0.2,2.4-1.1,2.2-2.7,2.8c-3.6,1.5-7.2,3.3-8.3,7.6c-2.3-0.1-4.4-1-6.8-2c2,5.2,3.5,5.5,6.7,1.9
				c2.9,0.3,5.5-0.5,8-2c2.2-1.2,4.6-2,6.5,0.7c0.7,1.1,1.4,0.5,2.2,0c3.7-2.3,4.9-1.9,7.3,1.7c0.7,1.1,0.7,2.7,2.2,3.2
				c0,1.8,0,3.5,0,5.2c-3.2,1-5.2,3.1-6.2,6.3c-1.6,5.4-5.3,8-10.5,6.9c-4.8-1-9.3,1.4-14,0.5c2.1,2.5,4.9,2.8,7.8,2.8
				c1.5,0,4.1-0.1,3,2.3c-2.1,4.9-2.9,11.2-10.8,11.3c3.5,2.1,4.5,2.2,6.9-0.5c3-3.5,7-3,10.8-3.6c0.2,0,0.6,0.4,0.8,0.7
				c0.9,1.5-3.6,11.3-5.2,11.7c-0.1,0-0.3,0-0.4,0c-7,1.1-13.8,2.8-18.5,8.8c-0.6,0.8-1.4,1.4-2.3,1.9c-9.2,5.9-14.9,14.1-15.5,25.1
				c-0.2,3.1-1.2,3.8-4,3.6C1612,614.6,1607,615.8,1602.8,619.5z"/>
		</g>
	</g>
	<g id="Alabama_xA0_Image_1_">
		<g>
			<path fill="#555555" d="M1374.8,607.5c2.8,0,5.5,0,8.2,0c-0.8,2.5,0.8,4.6,1.4,6.8c2.6,10.1,5.3,20.1,8.1,30.1
				c3.3,12.1,6.6,24.1,9.9,36.2c1.6,5.9,3.6,11.8,7.6,16.3c2.1,2.4,3.2,4.5,2.7,7.5c-0.1,0.7-0.6,1.5,0.4,1.9
				c4.2,1.8,1.6,3.4-0.2,4.9c-2.1,1.7-2.9,3.5-1.9,6.2c0.7,1.9,0.5,3.9-0.4,5.8c-1.2,2.4-0.9,4.7,0.7,7c2.3,3.3,3.6,6.8,2.2,11.1
				c-1.8,5.7-0.2,10.1,4,11.7c0,1,0,2,0,3c-2.6-0.2-5.2,0.3-7.8,0.7c-4.5,0.7-9,1.6-13.6,2.2c-6.5,0.8-13.1,1.3-19.6,2
				c-12.7,1.3-25.4,2.7-38.1,4c-1,0.1-2.5-0.6-2.8,0.9c-0.2,1.4-1.3,3.1,0.5,4.5c0.9,0.7,1.7,1.5,2.5,2.2c4.2,3.9,5.1,11.8,1.9,16
				c-1.3,1.7-3.6,1.7-4.7,3.4c-1.5,0-3,0-4.5,0c-0.6-2.1-2.7-2.8-3.8-4.4c-0.9-1.2-3-1.8-2.4-3.8c0.8-2.7-0.4-4.8-1.4-7.1
				c-0.3-0.6-0.4-1.6-1.3-1.6c-1.1,0-1.3,1.1-1.6,1.9c-1.1,3.3-0.5,6.9-0.8,10.3c-0.2,2.6-1,3.9-3.7,2.7c-1.4-0.6-2.6-0.5-3.9,0
				c-2.1,0.8-3,0.3-3.4-2.2c-1.8-13.9-3.9-27.7-5.9-41.6c-0.3-1.7,0.8-3.8-1.1-5.2c0-11,0-22,0-33c1.7-1,0.9-2.7,0.9-4.1
				c0.5-12.9-0.1-25.9,0.7-38.8c0.8-14,0.6-28.1,1.1-42.1c0.1-2.6-0.7-4.3-2.7-5.7c0-0.8,0-1.5,0-2.2c6.4-1.4,12.8-1.3,19.3-1.8
				c8.8-0.7,17.5-2,26.3-2.5c8.3-0.4,16.5-2,24.9-2.2C1373.4,608.5,1374.2,608.2,1374.8,607.5z"/>
		</g>
	</g>
	<g id="Ohio_xA0_Image_1_">
		<g>
			<path fill="#555555" d="M1459.5,468c-1.5,0-3,0-4.5,0c-1.4-2.3-3.5-3.7-5.9-4.5c-1.7-0.6-2.6-1.6-3.1-3.3
				c-1.1-3.8-1.6-3.8-4.3-0.7c-4.3,4.8-5.5,5.1-11.4,2.9c-1.7-0.6-3.4-1-4.9,0.3c-2,1.8-3.8,1.4-5.6-0.2c-2.4-2.1-5.1-3.1-8.4-2.3
				c-2.9,0.6-5-0.4-5.7-3.7c-0.9-4-5-6.1-7.8-6.4c-2.4-0.2-5.3,0.1-8.1-0.1c-2.4-0.1-3.1-1.2-3.3-3c-0.4-3.2-0.5-6.4-0.9-9.6
				c-1.4-11.5-3-23.1-4.3-34.6c-1.1-9.8-1.8-19.7-3.3-29.5c-0.4-2.4,0.6-5.3-1.6-7.4c0-4.8,0-9.5,0-14.2c4.2-0.5,8.3-1.1,12.5-1.4
				c9.3-0.6,18.2-4.4,27.9-2.4c3.9,0.8,7.6,1.6,11,3.6c1.4,0.8,2.4,1.4,3.9,0.2c1.2-0.9,2.7-1.2,3.8,0.6c1.5,2.5,6.5,4.1,9.2,2.9
				c5-2.3,9.3-6.4,15.6-5.9c1.5,0.1,3.5-1.3,4.8-3.1c5.7-7.5,12.7-13.3,21.7-16.5c1.3-0.5,3.3-0.8,3.7-2.8c1.8,0,3.5,0,5.2,0
				c0,1.2-0.2,2.5,0,3.7c1.8,11,3.6,22.1,5.5,33.1c0.5,3,0.2,6.2,2,9c0,1.2,0,2.5,0,3.8c-2,0.2-4.3,1-3.5,3.1
				c0.9,2.4,1.1,4.6,1.3,7.1c0.8,6.4-0.7,12.5-1.5,18.6c-0.3,2.2-1.1,4.2-0.6,6.6c0.4,2.1,0.4,4.5-1.8,5.5c-3,1.4-4.2,4.1-5.6,6.6
				c-1.9,3.3-4.1,5.3-8,3.7c-0.6-0.2-0.9-0.1-1.3,0.4c-1.4,2-3.4,3.8-4.2,6.1c-0.9,2.4-2.9,4.8-0.4,8c1.7,2.2-1.9,3-2.8,4.7
				c-0.6,1-1,1.6-2.2,1.5c-1.1-0.2-1.1-1-1.3-1.9c-0.2-1.4-1.5-3.1-2.4-1.7c-1.7,2.6-3.4,5.9-3,9c0.4,2.9,2.4,4.9-0.9,8.1
				C1463.2,463.5,1462.1,466.5,1459.5,468z"/>
		</g>
	</g>
	<g id="Illinois_xA0_Image_1_">
		<g>
			<path fill="#555555" d="M1312.5,469.5c0,1.5,0,3,0,4.5c-4.2,2.5-2.7,7.8-5.7,11.1c-1.7,1.8-1.6,5.2-4.9,5.8
				c-0.9,0.2-1.3,1.1-0.9,1.7c2,4.1-0.1,8.1-0.9,11.9c-0.4,2.2,0.5,4.8-1.1,6.8c-2.1,2.5-2.4,5.1-0.4,7.8c0.8,1.2,0.5,2.5-0.8,2.6
				c-2.7,0.1-4.5,1.6-6.7,2.9c-3.9,2.3-4.5,3.7-2.1,7.3c1,1.5,1,3.1,0.2,4.6c-0.9,1.5-2.2,1-3.6,0.6c-3.2-1-6.4-1.7-9.4-3.2
				c-2.6-1.3-4.4-0.9-5.8,1.7c-1.2,2.4-2.9,4.4-5.1,6c-1.2,0-2.5,0-3.8,0c-0.9-1.2-2.2-2.3-2.5-3.6c-0.6-2.6-4.8-4.6-3.4-6.4
				c2.7-3.5,1.5-6-0.3-8.9c-0.1-0.2-0.1-0.5,0-0.7c0.4-2.9-0.2-5-3.4-5.9c-2.6-0.8-2.7-4.4-5.3-5.4c-0.8-0.3-1.4,0.1-2.1,0.4
				c-1.6,0.8-2.8,0.1-3.3-1.3c-1-2.8-3.3-4.1-5.7-5.4c-4.6-2.4-8.2-7.9-7-11.6c0.9-2.6,1.1-5.6,2.4-7.6c1.8-2.7,0-5.5,1.5-7.8
				c0.7-1.1,3-2.1,0.7-3.5c-2.1-1.3-4.4-3.4-7.1-2c-5.8,3.1-8.2,2.2-8.5-4.1c-0.3-5.4-2.7-9-7.2-11.7c-5-3-8.9-7.6-12.4-12
				c-3.1-3.9-4.2-9.2-6.2-13.9c0-2.5,0-5,0-7.5c0.4-1.7,0.9-3.5,2.4-4.4c2.2-1.4,2.3-4.1,1.8-5.2c-2.1-4.9,1.6-5,4.3-5.9
				c1.9-0.6,3.1-1.4,2.4-3.7c-0.6-1.8-0.1-3.5,1.2-4.9c3.6-4,3.4-8-0.4-11.7c-0.6-0.6-1.6-1.1-1.7-2.3c-0.2-4.7,3.7-9.3,8.4-9
				c5.2,0.4,8-3.3,11.7-5.6c0.4-0.3,0.9-1.1,0.8-1.5c-0.4-2.9,1.5-4.5,3.1-6.4c1.7-2.1,2-4.8,1.1-7.4c-1.1-3.1-1.5-6.7-5.8-7.3
				c-0.6-0.1-1.2-0.8-1.3-1.6c-0.5-2.8-2-5-4.7-6.3c-0.8-0.4-1.4-1.1-1.2-2.1c0.3-1.1,1.4-1,2.2-1.1c3.5-0.4,6.9-1,10.4-0.9
				c13,0.4,25.9-2,38.9-1.9c2.1,0,4.2-0.3,6.2-1.4c6.5,0,13,0,19.5,0c0.4,0.8,0.7,1.6,0.4,2.5c-1.1,4,0.5,7.7,2.7,10.3
				c4.2,5,4.1,11.9,8.1,16.9c0.4,0.6,0.1,1.7,0.2,2.6c1.4,6.9,1.4,13.8,2.2,20.8c1,8.2,1.5,16.4,2.3,24.5c0.7,7.3,1.4,14.6,2.2,21.9
				c1,8.5,0.7,16.9-0.3,25.4C1308.1,460.5,1311.1,465.1,1312.5,469.5z"/>
		</g>
	</g>
	<g id="Arkansas_xA0_Image_1_">
		<g>
			<path fill="#555555" d="M1156.5,699c-10.5,0-21,0-31.5,0c-0.2-5.2-0.5-10.4-0.7-15.7c-0.2-4.1-1.1-5-5.2-4.7
				c-6.5,0.5-7.9-0.6-8.1-5.4c-0.8-26.7,2.1-53.6-2.4-80.2c-1-5.9-0.9-12.1-3.1-17.8c0-3,0-6,0-9c7-0.3,13.9-0.6,20.9-0.8
				c7-0.2,14-0.2,21-0.5c23.3-1.1,46.6-2.2,69.9-2.5c3.5,0,7,0.3,10.4-0.7c4.2,0,8.5,0,12.8,0c0.1,1.5,0,2.9,1.7,4.1
				c1.8,1.3,1.9,3.6,0.4,6c-1.3,1.9-3.2,3.3-4.1,5.6c-0.4,0.9-1.9,1.7-1.2,2.8c0.7,1.2,2.3,0.6,3.5,0.5c4.7-0.3,9.4-1,14,0.5
				c0,2.2,0,4.5,0,6.8c-2.2,0.6-3.5,2.8-5.9,2.9c-1.3,0.1-1.2,1.1-0.2,1.7c2.1,1.2,1.6,2.2,0.5,4.1c-1,1.7-3.7,2.5-2.9,5.3
				c0.2,0.8-0.8,0.7-1.3,0.5c-1.9-0.8-1.3,1.3-2.2,1.8c1.2,1.7-0.2,4.2,2,5.7c2.4,1.6,1.9,3.2-0.8,4.1c-2.8,1-3.9,5-3.4,5.8
				c2.7,4.6-1.1,5.3-3.4,7c-0.5,0.4-1.9,0.4-1.6,1.2c1.3,3.6-1,6.1-2.5,8.6c-1.5,2.5-0.3,6.1-4,8.1c-1.3,0.7-3.8,3.6-3.5,6.9
				c0.3,2.1-1.3,3.9-2.8,5.6c-1.5,1.8-5,3-3.1,6.5c1.4,2.6,0.5,6.7-1.9,8.4c-2.5,1.8-2.5,4.3,0,6c1.4,0.9,2.3,2.1,1.6,3.7
				c-0.4,1-0.2,1.6,0.1,2.6c1,3.8-1.5,7.3-1.7,11c0,0.2-1.1,0.6-1.6,0.6c-5.2-0.6-10.2,0.9-15.3,1c-9.7,0.2-19.5,0-29.2,0.4
				C1166.6,697.7,1161.4,697,1156.5,699z"/>
		</g>
	</g>
	<g id="Minnesota_xA0_Image_1_">
		<g>
			<path fill="#555555" d="M1034.2,99.8c-0.7-3.2,0.6-3.9,3.8-3.8c14.5,0.2,29,0.1,43.5,0.1c3.2,5,4.1,5.1,7.8,0.6
				c0.2-0.2,0.3-0.4,0.4-0.6c0.5,0,1,0,1.5,0c1.3,2.6,2.9,4.6,6.1,4.6c1,0,1.6,0.4,1.9,1.5c0.8,3.9,3.6,4.6,7,4.5
				c1,0,2.2-0.3,2.9,0.2c3.2,2,6.9,2.5,10.5,2.9c0.8,0.1,1.4,0.2,2,0.8c2.4,2.8,4.6,3,7.3,0.5c2.5-2.3,5.3-2.7,8.5-2.9
				c4.8-0.3,8.3,3.1,12.8,3.4c0.3,0,0.8,1,0.7,1.1c-2.1,3,0.5,2.3,2,2.5c1.8,0.2,2.9,0.9,3,3.1c0.1,1.8,1,3.4,3.1,4.4
				c-1.1-3.6-0.2-4.8,3.2-4.4c1.9,0.2,3.8,0.3,5.1,2.4c0.9,1.5,2.6,2.6,4.7,2.7c1.1,0,1.7,0.4,2.4,1.4c2.3,3.8,7.7,4.9,11.1,2
				c2.1-1.8,4.4-3,6.8-4.4c2.8-1.6,4.7-1,5.9,1.8c0.8,2,1.6,2,3.7,1.4c4.4-1.3,9.3-1.7,13.5-0.1c3.9,1.5,7.5,2.6,11.6,2.2
				c0,1,0,2,0,3c-3.2,1.5-6.4,3.2-9.7,4.3c-13.3,4.5-22.9,13.9-31.7,24.3c-3.5,4.2-7.1,8.2-11.6,11.5c-7.2,5.3-11.3,12.2-10.4,21.6
				c0.3,2.7,0,5.5,0,8.2c0,3.2-0.9,5.7-4.3,7c-1.3,0.5-2.6,1.4-3.9,2c-3.6,1.7-3.4,5.6-5.6,8.1c-2.2,2.3-1.9,3.9,1.2,5.3
				c3.7,1.7,4.5,4.7,2.6,8.6c-0.9,1.9-1.9,3.6-1.9,5.9c0,4.9,0.8,9.7-0.1,14.6c-0.1,0.6-0.5,1.3,0.1,1.8c2.9,2.4,5.6,5.7,8.9,6.7
				c5.8,1.7,9.7,6.1,14.9,8.5c0.5,0.2,0.8,1,1,1.6c1.2,4.2,5,6.2,8.1,8.3c6.2,4.1,10.2,9.1,10.1,16.9c0,2.7-0.7,4.4-4,4.5
				c-9.5,0.2-18.9,0.5-28.4,1.1c-11,0.8-22,0.6-33,0.9c-1.3,0-2.8-0.6-3.7,1c-24.5,0-49,0-73.5,0c-0.9-1.4-0.5-2.9-0.5-4.4
				c0-20.1-0.1-40.2,0-60.4c0-3.4-0.9-5.5-4.1-7c-6-2.8-6.9-9-2.2-13.7c5.9-5.9,5.7-16.6,2.9-22.7c-2.3-4.9-4.4-9.6-3.9-15.2
				c0.3-3.2,1.5-6.6-1.4-9.4c-0.3-0.3-0.3-1-0.1-1.4c1.4-4.6-0.5-9.2-0.2-13.7c0.3-5.4-0.7-10.4-2.9-15.2c-4.1-9-3.5-18.7-3.5-28.2
				C1036.4,107.4,1035.7,103.6,1034.2,99.8z"/>
		</g>
	</g>
	<g id="New_Mexico_xA0_Image_1_">
		<g>
			<path fill="#555555" d="M856.5,538.5c0,5.8,0,11.5,0,17.2c-0.1,2.6-2.9,3.9-3.1,6.6c-1.5,19.8-3,39.6-4.7,59.4
				c-1.7,20.9-3.5,41.8-5.2,62.7c-1.2,13.9-2.3,27.9-3.4,41.8c-0.2,2.8-1.2,3.5-4,3.3c-6.7-0.6-13.4-1.2-20.1-1.8
				c-13.3-1.3-26.6-1.9-39.9-3.4c-6.1-0.7-12.2-1-18.2-1.6c-9-0.9-18.1-1.9-27.1-2.6c-3.5-0.3-4.3,1.2-2.8,4.6
				c0.3,0.7,1.3,1.3,0.4,2.2c-0.7,0.7-1.6,0.6-2.5,0.4c-1.9-0.4-3.7-1.5-5.8-1.4c-6.5,0.5-12.7-2.3-19.3-1.6
				c-0.7,0.1-1.4-0.4-2.2-0.5c-6.7-0.9-13.4-2.1-20.2-2.3c-1,0-2,0-2.1,1.5c-0.2,4.8-2.2,9.5-1.3,14.5c-1.5,0-3,0-4.5,0
				c-1-1.2-2.5-0.7-3.8-0.9c-6.8-1.1-13.7-0.9-20.2-3.6c0-1.5,0-3,0-4.5c2.2-5.5,2-11.5,2.9-17.2c1.9-12.1,3.2-24.2,4.9-36.3
				c1.8-12.7,3.9-25.4,5.6-38.1c2.7-19.4,5.1-38.8,7.7-58.2c1.9-14.2,3.7-28.4,6.1-42.6c0.8-5.1,0.6-10.5,2.7-15.4c4,0,8,0,12,0
				c0.9,1.6,2.4,0.9,3.7,1.1c6.3,0.8,12.5,1.5,18.8,2.3c5.5,0.7,11,1.5,16.5,2.2c5.9,0.7,11.8,1.3,17.7,2c7.5,0.9,15,1.9,22.5,2.6
				c6.2,0.6,12.4,1.1,18.5,1.9c9.1,1,18.3,1.7,27.4,2.6c7.3,0.7,14.6,1.1,21.8,2.1C842.4,538.1,849.5,538.1,856.5,538.5z"/>
		</g>
	</g>
	<g id="Wyoming_xA0_Image_1_">
		<g>
			<path fill="#555555" d="M838.5,387.8c-2.8,0-5.5,0-8.2,0c-3.2-1.2-6.7-0.3-10-0.8c-8-1.1-16-1.9-24-2.7
				c-7.2-0.8-14.3-1.4-21.5-2.2c-6.2-0.7-12.3-1.5-18.5-2.3c-6.2-0.8-12.3-1.5-18.5-2.3c-6.1-0.8-12.3-1.4-18.4-2.4
				c-7.5-1.2-15.1-1.7-22.4-3.5c-8.2-2-16.6-2.7-24.9-4.2c-5.1-0.9-10.2-1.6-15.3-2.6c-4.6-0.9-9.3-1.2-14-1.8c0-2.8,0-5.5,0-8.2
				c0.7-0.6,0.8-1.5,0.9-2.4c1.4-11.6,3.7-23,4.8-34.6c0.8-8.1,2.5-16.2,3.8-24.2c1.7-11,3.4-22.1,5.2-33.1
				c1.9-11.5,3.6-22.9,5.8-34.3c0.8-4.4,0.6-9,2.7-13.1c2,0,4,0,6,0c1.3,1.8,3.3,1.5,5.1,1.6c8,0.7,16,2.2,23.9,3.5
				c8.8,1.4,17.7,2.7,26.5,3.8c9.5,1.2,18.9,2.8,28.5,3.6c4.3,0.4,8.7,0.7,12.9,1.5c7,1.4,14.1,2,21.1,2.5c6.7,0.5,13.4,1.5,20,2
				c5,0.4,10.2,0.6,15.2,1.4c8.9,1.5,17.8,1.5,26.7,2.5c0,5.2,0,10.5,0,15.8c-2.2,7.6-1.7,15.5-2.7,23.2c-1,7.6-1.3,15.4-1.9,23
				c-0.9,10.9-3.2,21.6-3.8,32.6c-0.7,10.6-1.9,21.1-2.8,31.6C840,370.4,839.2,379.1,838.5,387.8z"/>
		</g>
	</g>
	<g id="Hawaii_xA0_Image_1_">
		<g>
			<path fill="#555555" d="M141,411.8c0-1.1-1-1.5-1.7-1.8c-3.1-1.2-3.9-3.5-3.3-6.6c0.9-4.3-1.3-8-2.9-11.7c-1-2.3-0.8-3.9,1.1-5.6
				c2.4-2.2,4.1-4.7,2-8.1c-0.5-0.8-0.6-2,0.3-2.8c0.8-0.7,1.8-0.8,2.8-0.2c3.9,2.7,8.7,3.4,12.8,5.8c2.8,1.6,4.6,3.6,6.3,6.4
				c1.6,2.7,3.5,5.8,6.8,7.3c0,0.8,0,1.5,0,2.2c-3,1.8-5.3,4.8-9.1,5.3c-5.9,0.8-10,3.9-11.9,9.7C143,411.8,142,411.8,141,411.8z"/>
			<path fill="#555555" d="M46.5,321c1.7,2.8,1,8.7-1.1,10.1c-2.4,1.5-9.1-0.6-10.4-3.4c-0.9-1.9,0.5-3.3,1.7-4.5
				c0.7-0.8,2.1-0.8,2.4-2.1C41.5,321,44,321,46.5,321z"/>
			<path fill="#555555" d="M22.5,330.8c0.9-0.7,1.7-1.4,2.6-2.1c0.8-0.6,1.5-2.1,2.7-0.8c0.8,0.9,0.1,2.9-0.3,3
				c-1.9,0.6-1.9,4.4-5,2.9C22.5,332.8,22.5,331.8,22.5,330.8z"/>
			<path fill="#555555" d="M125.2,366.5c-1.6,0.2-3-0.2-3.2-1.3c-0.5-2.9-2.6-3.7-4.8-4.9c-2.3-1.3-2.5-3.6-1-5.4
				c1.6-1.9,3.1-0.4,4.3,1c0.6,0.7,1.2,1.5,2.2,1.1c3.8-1.6,6.4,1.2,9.3,2.6c3,1.4,2.8,2.7,0.2,4.9
				C130,366.2,127.2,365.4,125.2,366.5z"/>
			<path fill="#555555" d="M87.3,348.1c-2.4-0.5-4.9-1.3-7.7-0.6c-1.3,0.3-5.3-5.7-5-7.1c0.2-0.8,0.7-1.2,1.5-1.4
				c0.7-0.2,1.5-0.3,2.1-0.7c4.4-2.9,4.7-3,7.3,1.4c1.1,1.9,2.2,3.5,3.7,5c0.6,0.6,1.8,1.3,1.3,2.4
				C89.9,348.5,88.5,347.6,87.3,348.1z"/>
			<path fill="#555555" d="M110.2,353.9c-3.2,0.1-5.9-1.8-9-1c-0.9,0.2-1.8-0.4-1.8-1.4c0.1-1.4,1-2.5,2.3-2.4
				c4.1,0.1,8.1,0.3,12.2,0.8c1.5,0.2,1.6,1.2,0.6,2.4C113.3,353.8,111.7,354.1,110.2,353.9z"/>
			<path fill="#555555" d="M109.6,362.7c-2.5-0.5-2.4-3-3.3-4.6c-0.5-1,0.9-1.6,2-1.4c2.1,0.3,4.1,1.1,4.4,3.3
				C112.8,361.7,110.9,362.1,109.6,362.7z"/>
			<path fill="#555555" d="M119.8,367.4c-0.2,1.5-1.3,1.5-2.5,1.5c-0.8,0-1.6-0.3-1.6-1.2c0.1-1.7,1.7-1.6,2.8-1.8
				C119.4,365.8,120,366.4,119.8,367.4z"/>
		</g>
	</g>
	<g id="Nevada_xA0_Image_1_">
		<g>
			<path fill="#555555" d="M403.5,273c1,0,2,0,3,0c0.8,1.4,2.2,1.4,3.5,1.7c6.8,1.6,13.7,3.3,20.5,4.9c7.7,1.9,15.3,3.7,23,5.6
				c5,1.2,10,2.5,15.1,3.7c5.3,1.3,10.5,3.3,15.9,3.5c6.8,0.2,13,2.8,19.6,3.7c5.7,0.8,11.4,2.5,17.1,3.6c6.3,1.3,12.7,2.3,18.9,3.8
				c8.9,2,17.9,3.9,26.9,5.4c0,2.2,0,4.5,0,6.8c-1.4,1.3-1.3,3.1-1.7,4.8c-1.6,8.5-3.2,17.1-4.9,25.6c-1.8,8.8-3.7,17.5-5.5,26.2
				c-1.7,8.8-3.3,17.6-5,26.3c-2.3,11.3-4.7,22.6-7,33.9c-2.7,13.8-5.4,27.5-8,41.3c-2.4,12.1-4.4,24.2-7.2,36.2
				c-1.6,6.8-1.4,14.1-6.1,20c-2.3,2.8-3.9,3.3-6.1,0.3c-2.2-3-5.3-3.8-8.6-4c-3.4-0.2-5.2,2.8-3.9,5.9c0.5,1.2,1.1,2.1,0.4,3.4
				c-2.3,4.6-1.7,9.9-1.7,14.6c0,6.2-0.1,11.9-2.9,17.4c-0.8,0-1.5,0-2.2,0c-3.2-4.7-6.4-9.4-9.5-14.2
				c-8.5-12.8-16.9-25.6-25.4-38.4c-8.7-13.1-17.5-26.1-26.2-39.2c-7.3-11-14.6-22-22-33c-8.6-12.9-17.1-25.7-25.8-38.5
				c-4.2-6.1-7.7-12.6-12.6-18.3c0-1.5,0-3,0-4.5c0.9-3.1,1.9-6.1,2.7-9.2c4.9-19.2,9.9-38.4,14.7-57.5c2.2-8.8,4.2-17.6,6.6-26.3
				C400.6,283.5,401.2,278,403.5,273z"/>
		</g>
	</g>
	<g id="Washington_xA0_Image_1_">
		<g>
			<path fill="#555555" d="M344.2,87.8c0-0.8,0-1.5,0-2.2c0.6-0.6,1.4-1.9,1.8-1.8c2.1,0.8,2.4-1.3,3.5-2c2.1-1.4,1-3.9,1.7-5.9
				c0.6-1.6-1.7-0.6-2.3-1.5c-1.6-2.2-0.7-4.6-0.5-6.8c0.1-2.1,2-0.6,2.9-1c1.3-0.6,3.3,0.2,4.2-1.7c-5.5-1.6-5.9-1.9-5.3-7.5
				c0.6-5.9-0.8-11.7,0.9-17.7c0.8-3,1.7-7.1-1-10c-4.1-4.5-1.7-9.5-1.6-14.4c0-0.5,0.7-1,1.1-1.5c0.8-1.1,1.7-2.2,1-3.7
				c-0.4-0.9-0.1-1.7,0.9-2.1c0.9-0.3,1.7-0.2,2.4,0.5c1.5,1.5,3.2,2.8,4.4,4.5c2.8,3.8,7.1,5.7,10.2,9.1c1.4,1.5,4.2-0.2,5.7,1.2
				c4.7,4.5,12,3.8,16.7,8.3c0.6,0.6,1.8,1.5,2.8,0c0.6-0.8,1.6-0.7,2.4-0.1c0.8,0.6,0.4,1.5,0.4,2.4c-0.1,2.8-1,6,2.9,7.2
				c0.3,0.1,0.5,0.8,0.6,1.2c0.6,2.9-1.4,6.6-4.3,7.9c-0.9,0.4-1.4,1.1-0.7,1.6c2.3,1.8,0.7,3.6,0.2,5.3c-0.7,2-1.5,3.9-2.2,5.9
				c-0.5,1.3,0.2,2.1,1.4,1.7c1.8-0.7,4.2-1.4,3.7-4.2c-1.1-5.9,2-10.5,4.6-15.2c1.6-2.9,5.7-5.1,2.8-9.4c-0.1-0.2-0.1-0.5,0-0.7
				c0.7-2,0.6-3.5-2-3.6c-0.7,0-1.1-0.5-1.1-1.3c0-0.7,0.4-1.1,1-1.4c0.9-0.4,2,0.3,2.7-0.7c0-1-1-1-1.5-1.5
				c-1.3-1.4-1.3-5.6-0.2-5.4c2.2,0.4,1.9-1.5,2.7-2.2c2.3-1.9-0.9-3.6,0.4-5.4c1.2-1.5,1.5-3.4-1.8-3c-1.8,0.2-3.1-1.7-4.4-2.7
				c-1.2-0.9,0.9-2.2,1.7-3.2c1-1.2,0.9-2.5,0.7-3.9c1,0,2,0,3,0c6.4,2,13,3.8,19.4,5.7c9.9,3,19.9,5.7,29.9,8.4
				c10.3,2.8,20.6,5.8,31.2,8.1c9.2,2,18.1,4.8,27.2,7c9.8,2.4,19.7,4.5,29.6,6.8c0,3,0,6,0,9c-1.4,0.6-1.3,2.1-1.6,3.2
				c-1.7,7.6-3.1,15.2-4.9,22.7c-4.3,18.5-8.8,36.9-13.2,55.4c-0.9,3.7-1.8,7.4-0.6,11.2c0.5,1.5,1.1,3,0,4.2
				c-1.3,1.5-1,2.9-0.7,4.5c-2,0-4,0-6,0c-2.7-1.8-6-1.9-9-2.7c-7.3-1.9-14.5-4.1-21.9-5.3c-6.5-1.1-12.7-5.4-19.7-2.2
				c-1.5,0.7-3.2,0.1-4.8-0.5c-7.4-2.8-15-0.8-22.5-0.4c-0.3,0-0.7,0.4-1,0.5c-3.7,0.6-7.6,1-10.9-1.2c-2-1.3-3.7-1.5-5.8-0.6
				c-4.4,1.8-8.8,0.3-12.1-2c-5.8-4.2-11.3-6.9-18.6-3.8c-2.6,1.1-6,1.1-9-0.6c-2.4-1.4-5.1-2.5-7.8-3.5c-2.9-1.1-4.1-3-3.7-6.1
				c0.6-4.5,1.5-8.9,0.2-13.5c-0.8-2.6-2-4.2-4.2-4.3c-3.5-0.1-5.4-2.1-6.5-4.7c-1.7-3.9-5.5-4.4-8.5-4.6c-2.5-0.2-4.3,0.1-5.3-2.6
				C345.5,88.3,344.8,88.1,344.2,87.8z M389.1,61.5c-3,0.2-5.9,0.4-5.3,3.9c0.2,1.3,1.9,2.8,3.3,2.4
				C391.3,66.9,387.4,63.3,389.1,61.5z"/>
		</g>
	</g>
</g>
<g id="X_Light_1_">
	<g id="New_Hampshire_xA0_Image_1_">
		<g>
			<path fill="#636363" d="M1709.2,253.5c-1.5,0-3,0-4.5,0c-2.5-2.9-2.8-5.8-2.5-9.7c0.5-4.7,0.6-9.8-2-14.3c0-2.8,0-5.5,0-8.2
				c0.8-3.3,1.5-6.7,2.4-9.9c0.9-3-0.3-6.1,0.9-8.9c0.8-1.9,0.5-3.2-0.7-4.7c-1.8-2.2-1.9-5.2,0.3-6.7c2.3-1.6,3.9-3.7,5.9-5.5
				c3.4-3,3.8-4.8,1.1-8.5c-3.3-4.4-0.7-9.2-1.1-13.8c-0.2-2.3,1.4-4.7,1.4-7.3c0-2,1.1-5.2,3.3-4.6c3.2,0.9,3.5-1.2,4.6-2.8
				c0.2,0,0.5,0,0.8,0c1.1,3.8,2.1,7.6,3.3,11.4c5.9,19.4,12.7,38.5,17.7,58.1c0.3,1,0.9,1.8,1.8,2.3c2.2,1.4,4.1,3,5.3,5.5
				c0.4,0.9,1.2,2.3,2.8,2.2c0,1.8,0,3.5,0,5.2c-2,0.5,0,3.1-1.9,3.5c-4.2,1-6.2,4.1-8.2,7.6c-2.5,4.4-7.4,3.3-11.2,4.4
				C1722.1,250.6,1715.4,251,1709.2,253.5z"/>
		</g>
	</g>
	<g id="Pennsylvania_xA0_Image_1_">
		<g>
			<path fill="#636363" d="M1511.2,411c-1.2,0-2.5,0-3.8,0c-1.1-6.1-2.2-12.2-3.2-18.3c-2.4-14.9-4.6-29.9-7.3-44.8
				c-0.9-5-0.7-10.2-3-14.9c0-2.5,0-5,0-7.5c5.7-2.1,9.5-7.1,14.4-10.3c1.8-1.2,3.4-3.9,5.2-3.5c1.3,0.4,1.2,3.7,1.4,5.7
				c0.2,2.6,1.2,3.5,4.1,2.7c5.7-1.5,11.7-2.3,17.5-3.5c6.7-1.3,13.4-2.6,20.1-3.9c6.2-1.2,12.4-2.4,18.6-3.6
				c6.3-1.2,12.7-2.4,19-3.7c6.6-1.3,13.1-2.5,19.7-3.9c6-1.2,12.1-2.6,18.1-3.9c1,0,2,0,3,0c1.8,2.4,3.9,4.4,6.8,5.3
				c2.2,0.7,3.9,2.4,4,4.5c0.3,4.9,3.8,6.3,7.5,7.5c1.4,0.4,2.4,1.3,3.7,1.7c0.9,0.3,1.3,1,0.7,1.7c-3.8,4.1-3.8,10.2-7.5,14.4
				c-0.9,1-1.2,1.8,0,2.7c2.7,2.2,2.4,4.4,0.5,7.1c-1.5,2.1-2.1,4.9,0.7,6.5c1.8,1.1,3.2,2.1,3.8,4.2c0.3,1.2,1.3,1.8,2.6,1.7
				c0.9,0,1.8,0.1,2.3,1c1.5,3,4.5,3.6,7.2,4.8c0,1,0,2,0,3c-4.2,2-6.9,5.7-9.1,9.6c-0.9,1.5-7.1,7.4-8.5,6.8
				c-3.9-1.7-5.4,1.1-7.2,3.3c-1.7,2.1-3.9,2.9-6.4,3.4c-8.4,1.7-16.8,3.3-25.1,5c-8.5,1.8-16.9,3.8-25.4,5.5
				c-9.1,1.8-18.3,3.3-27.4,5c-10.4,1.9-20.8,3.6-31.1,5.6C1521.6,408.9,1516.2,408.9,1511.2,411z"/>
		</g>
	</g>
	<g id="Georgia_xA0_Image_1_">
		<g>
			<path fill="#636363" d="M1450.5,598.5c2.5,0,5,0,7.5,0c-0.3,3.4-2.9,5.7-4.1,8.7c-0.4,1-1.4,2.4-0.3,3c3.7,2.2,6.7,6,11,6.6
				c5.3,0.8,7.9,4.1,10,8.3c3.2,6.2,7.1,11.6,13.9,14.2c1.7,0.6,3.2,1.9,3.6,3.6c0.6,2.5,2.2,3.4,4.3,3.9c2.8,0.7,4.7,3,6.1,5.1
				c3.4,4.9,6.1,10.3,12.7,11.6c0.8,0.2,1.7,0.7,2.2,1.4c2.7,3.9,5.6,7.8,6.2,12.6c0.3,2.3,1,3.7,3.1,4.5c4.6,1.9,7,5.5,7.6,10.5
				c0.5,4.1,2.4,5.7,6.6,6c1.4,0.1,2.2,0.9,3.2,1.5c0,0.5,0,1,0,1.5c-3.2,0.4-2.8,5.2-6.3,5.4c0,0-0.1,0.6,0,0.9
				c1.2,3.5-2.9,6.2-1.6,9.7c0.1,0.2-0.6,0.7-1.1,0.9c-0.6,0.4-0.8,0.7-0.6,1.4c0.8,3-0.7,12.6-2.3,14.9c-1.3,1.9-1.8,5.4-1.4,6
				c2.5,3.4-1,6.8,0.8,10.1c0.7,1.4-1.2,1.3-2.3,1.4c-3.8,0.3-7.3-1.4-11-1.6c-3.9-0.2-5.9,2.5-4.2,6c1.9,3.8,2,7.6,0.7,11.5
				c-1.5,0-3,0-4.5,0c-0.7-1.3-1.8-2.6-2-4c-0.4-2.7-1.9-3.2-4.2-3c-2.6,0.3-5.2,0.5-7.8,0.7c-22.9,1.7-45.8,3.5-68.7,5.2
				c-4.3,0.3-6.7-1.1-7.8-5.2c-0.5-2-1.4-3.6-2.8-5.2c-4-4.5-7.3-9.3-5.1-15.7c1.2-3.5,0.4-6.2-1.6-9c-2.1-2.9-2.7-6.1-1-9.5
				c0.7-1.4,0.8-2.9,0.3-4.4c-1-3.3-0.8-6.1,2.4-8.1c0.7-0.4,2-1.4,0.6-2.3c-2-1.3-2-2.7-1.4-4.7c0.5-1.4-0.2-2.8-1.3-3.7
				c-4.1-3.6-6-8.5-7.5-13.4c-2.6-8.3-4.8-16.7-7.1-25.1c-2.7-10.1-5.2-20.2-8.2-30.2c-2-6.6-3.3-13.5-5.9-19.9c0-1,0-2,0-3
				c5.3-0.5,10.6-1,15.9-1.6c11.7-1.4,23.5-2.5,35.1-4.5C1438.5,600.4,1444.8,601,1450.5,598.5z"/>
		</g>
	</g>
	<g id="Kentucky_xA0_Image_1_">
		<g>
			<path fill="#636363" d="M1477.5,498c0,0.8,0,1.5,0,2.2c-2.5,1-3.6,3.3-4.6,5.6c-1.1,2.6-2.8,4.4-5.4,5.8c-3,1.7-6.7,2.9-8.2,6.2
				c-2.4,5-5.4,8.9-9.5,12.8c-5.5,5.2-13.2,6.2-18.3,11.5c-0.4,0.5-1.4,0.6-2.1,0.6c-11.6,0.6-23,3-34.7,2.4
				c-1.3-0.1-2.7,0.2-4.1,0.4c-7.4,1.1-14.8,2.4-22.3,2.5c-18.5,0.2-36.7,2.9-55.1,4.8c-2.2,0.2-4.3,1-6.4-0.6c-1.1-0.8-2.9-0.8-4,0
				c-1.2,0.8-0.1,2.2,0.3,3.3c0.8,2.4,0.2,3.9-2.6,4c-2.7,0.1-5.5,0.3-8.2,0.6c-6.8,0.8-13.7,0.1-20.4,1.7c-2.2,0-4.5-0.2-6.7,0.1
				c-3.2,0.4-4.4-0.6-3.8-3.8c1.1-0.4,1.1-2.4,2.9-1.7c2.9,1,3.7,0.2,3.4-3c-0.2-2.6-0.7-5.2,1.1-7.6c0.6-0.8,0.5-2-0.5-2.7
				c-4.4-3-0.3-5.3,0.7-7.8c1-2.7,3.1-3.6,6-2.8c3.7,1,7,3.1,10.9,3.5c0.6,0.1,1.2,1.1,1.9,0.3c0.6-0.8,0.9-1.9,0.5-2.8
				c-0.3-0.8-1-1.4-1.4-2.2c-1.1-2-0.3-7.1,1.3-7.4c3.4-0.5,5.7-3.5,9.3-3.5c-2.2-4.9-2-8.2,1.3-10.8c1.6-1.3,4-1.4,3.1-4.5
				c-0.2-0.8,1.2-1.8,2.6-1.2c0.9,0.4,1.8,0.8,2.8,0.4c2.5-1.1,4.6-2.2,7.9-2.3c3.6-0.1,6.2,0.7,8.6,2.4c3.4,2.3,3.2,2.5,4.3-1.4
				c1-3.6,4.6-5,7.6-3c4.2,2.9,5.9,2.2,7-2.9c0.3-1.2,1.7-2.3,0.8-3.7c1.8-1,2.1-3.8,4.4-4.1c2-0.2,2.7,1.3,3.1,3.3
				c0.6,3.1,4,3,6.1,2.9c1.6-0.1,4.4-1.3,3-4.6c-1-2.4,1.1-4.5,1.6-6.8c0.3-1.5,2-0.6,2.9-1.1c1.3-0.6,2.2-1.6,2.3-3.1
				c0-1.3,0.6-2.5,1.6-3.2c3.3-2.2,3.8-5.2,2.7-8.6c-0.7-2.3,0.2-3,2.3-2.9c1.4,0.1,2.8-0.6,4.1,0.2c1.4,0.8,2.8,0.1,3.3-0.7
				c1.2-1.9,2.8-2.4,4.9-2.7c1.5-0.2,3.4-1.1,2.2-3.3c-3.3-5.7-3.3-5.9,0.4-10.1c3.8,0,7.5,0,11.2,0c0.1,1.8,1.8,2,2.9,2.5
				c2.3,1,3.9,2.9,4.4,5.1c0.6,2.9,2.3,3.5,4.6,3c3.6-0.9,6.5,0.3,9.2,2.5c1.4,1.2,2.6,1.7,4.1-0.1c1.1-1.3,2.9-1.3,4.2-0.7
				c5.5,2.6,9.5,1.5,13-3.6c1.7-2.4,4.5-1.6,5.1,1.2c0.5,2.3,1.7,3.5,3.8,4.5c2.7,1.3,5.6,2.4,6.1,6.5c0.3,2.1,1,4,0.3,6.3
				c-0.4,1.3-0.1,2.6,1.2,3.6c1.6,1.3,3.7,2.6,4.4,4.3C1465.6,490.7,1470.6,495.3,1477.5,498z"/>
		</g>
	</g>
	<g id="Wisconsin_xA0_Image_1_">
		<g>
			<path fill="#636363" d="M1220.2,336.8c-2.5,0-5,0-7.5,0c-0.5-3.1-1.8-5.3-5.3-6.3c-3.7-1-8.3-1.5-7.6-7.3
				c0.1-0.5-0.5-1.2-0.9-1.6c-3.6-3.4-2.4-7.1-0.9-10.9c0.5-1.2,1.3-2.4,0-3.4c-4.9-3.8-4.8-9.4-5.1-14.6c-0.4-5.9-4.4-9.1-8.3-12.4
				c-3-2.5-7-4-8.6-7.7c-1.2-2.7-3.1-4.4-5.3-5.4c-2.4-1.1-4.6-2.4-6.5-4.1c-0.9-0.8-1.9-1.2-3-1.1c-1.8,0.1-3-0.7-4.2-2
				c-1.5-1.6-3.1-3.2-5.1-4.3c-1.8-1-2.6-2.3-1.6-4.6c0.9-2.2,0.2-4.7,0.3-7c0.2-4.5-0.9-9.2,1.7-13.5c1.8-2.9,0.9-5.7-2.2-6.8
				c-1.6-0.6-2.4-1.6-3.2-2.8c0-1,0-2,0-3c1-1.2,2.6-2.2,3-3.6c1.3-4.6,4.6-6.8,8.6-8.5c2.7-1.1,3.9-3.1,3.8-6.1
				c-0.1-4.9,0.4-9.7,0-14.6c-0.4-3.6,2.3-5.4,3.8-7.7c1.2-1.8,1.7,1.9,3.3,1.6c0.5-0.1,1,0,1.5,0.1c4.5,1,8.3-1.5,12-3.1
				c4.5-1.9,9.7-2.9,12.6-7.5c1.8,0,3.5,0,5.2,0c0.9,4.7-2.9,8.5-2.8,13.4c2.8-2.1,5.4-2.6,8.2-0.2c0.7,0.6,2.2,0.5,3.2,0.5
				c3.8-0.2,6.9,1.7,8.8,4.5c2.3,3.3,5.1,4.8,8.9,5.1c1.9,0.1,3.7,0.5,5.5,0.9c5.6,1.4,11.7,1.1,16.9,4.3c2.4,1.5,4.8,2.8,7.6,2.5
				c4.7-0.4,8.9,1.8,13.5,1.8c2,0,3.4,1.1,3,3.3c-0.4,2,0.6,2.1,2.1,2.6c2.3,0.8,5.6,0.9,6.2,3.9c0.6,2.9,1.4,6.1-0.5,9
				c-0.5,0.8-0.8,1.7-0.1,2.4c0.6,0.6,1.4,0.2,2-0.2c1.1-0.6,2-0.9,3,0.2c1,1.1,0.3,2-0.3,3c-1,2-1.4,3.9,0.7,5.6
				c2.7,2.3,2.4,4.1-0.8,5.6c-2,0.9-3,2.2-3.6,4.3c-0.4,1.7-1.1,3.3-1.8,4.9c-1,2.2-1.3,4.5-1.1,6.9c0.2,1.5,1.2,1.9,1.9,0.7
				c1.4-2.4,4.5-3.4,5.2-6.2c0.7-3.1,2.4-4.9,5.2-6.4c3.3-1.8,3.6-6,5.6-8.8c2.2-3,2.1-7.9,7-8.7c0,1,0,2,0,3
				c-0.7,0.1-1.4,0.7-1.3,1.1c0.9,2.5-0.5,4.1-1.9,5.8c-0.4,0.5-0.8,1.5-0.6,2c0.9,1.8-0.1,3-1,4.4c-3.6,5.3-4.8,11.5-6.6,17.5
				c-0.7,2.5-1.1,4.8,0.6,7.1c0.9,1.3,0.5,2.4-0.8,3.5c-4.3,3.5-4.3,8.4-3,13c0.8,2.9,0.3,5.3-0.5,7.8c-2.4,7.3-3.6,14.5-1.8,22.2
				c1.4,5.8,4.5,11.3,3.5,17.7c-0.3,2.1-0.5,3.2-3,3.6c-8.4,1.3-16.9,1.3-25.3,1.9c-12.6,0.8-25.1,2.3-37.7,2
				C1223.1,336,1221.6,335.9,1220.2,336.8z"/>
		</g>
	</g>
	<g id="Louisiana_xA0_Image_1_">
		<g>
			<path fill="#636363" d="M1293,837.8c0,4.5,0,4.5-5.2,4.5c-0.4-1.1-1.5-1.5-2.3-1.6c-3.8-0.2-6.6-1.8-8.5-5.2
				c-0.3-0.5-1.4-0.6-1.9-1c-2.1-1.7-6.3-1.2-6.9-2.8c-2.2-6.2-8.4-2.5-11.4-6c2.6,3.4,2.7,3.5,1.2,7.6c-0.4,1.2,0.4,1.6,1,2.1
				c1.6,1.4,1.4,2.4-0.3,3.6c-3.5,2.6-4.4,2.5-7-1.3c-2.6-3.9-4.3-4.1-8.7-2c-3.1,1.5-2.9,6.3-7,6.5c-1.2,0-2.5,0-3.8,0
				c-0.7-1.5-1.3-3-2-4.5c-2.8,2-9.7,1.5-12.2-0.7c-0.6-0.5-1.2-1.1-0.5-1.9c0.6-0.7,1.2-1.6,2.5-0.9c1,0.6,1.8,1.8,3.6,0.8
				c-2.6-4.4-6-7.2-11.2-7.3c-1.4,0-3.2,0.7-3.2-1.9c0.1-3.4-4-3.3-5.1-5.9c-0.5-1.1-2.4,0.5-3.7,0.8c-1.1,0.3-2.6,0.6-2.3-1.2
				c0.5-3.7-1-2.4-2.6-1.2c-0.9,0.6-1.8,1.5-2.8,1.8c-2.8,1-2.8,2.4-0.9,4.2c1,1,1.2,1.7-0.2,2.1c-2.2,0.8-4.6,2.1-6.7,1.8
				c-6.1-0.8-12.3-0.7-17.9-4.2c-4.1-2.6-9-3.6-13.9-3.4c-3.7,0.1-7.5,0.2-11.2,0.3c-1.5,0-2.9,0.2-4.3,1c-1.5,0.8-3.3,2.3-4.9,0.1
				c-1.4-1.9-1.4-3.7,0-5.8c2.5-3.6,4-7.7,4.9-12.1c0.5-2.4-2-3.8-1.4-5.9c1.1-4.1,1.2-8.5,3.3-12.5c3.5-6.6,4-13.5,0-20.3
				c-0.4-0.7-1-1.5-1.1-2.4c-0.4-3.6-2-6.5-4.6-8.9c-1.1-1-1.7-2.1-1.2-3.7c0.9-2.7,0-4.9-1.8-6.8c-4.1-4.2-5.5-9.2-5.3-15
				c0.2-6.2-0.1-12.5-0.3-18.7c-0.1-2.7,0-5.5-0.8-8.1c0-1,0-2,0-3c1.6-1.2,3.5-1.2,5.3-1.2c8.2-0.1,16.4,0,24.6-0.4
				c5.8-0.3,11.7,0.6,17.3-1.3c15.5,0,31,0,46.5,0c2.3,2,1.6,4.2,0.5,6.4c-0.4,0.7-1.6,1.9-0.7,2.1c2.4,0.5,2.2,2.7,3.4,4
				c1.8,2,1.6,6-0.5,8.1c3-0.2,3.3,3.2,5.8,3.8c0.4,0.1,0.5,1.3,0,1.7c-2.3,1.4-2.5,5.7-6.5,4.9c-0.3-0.1-0.7,0.6-1.1,0.9
				c0.8,1.4,4,0.2,3.1,3.2c-1.2,4-5.2,6.5-5.9,10.7c0,0.2-0.6,0.6-0.9,0.5c-4.3-1.1-3.4,2.1-3.4,4.2c0,2.3-0.7,4.3-2.2,5.6
				c-1.7,1.5-1.3,2.6-0.7,4.2c0.9,2.4,0.6,5.2-1.6,6.3c-2.4,1.2-2.6,3.6-1.9,4.4c1.5,1.5,1.2,4.8,4.8,4.6c17.2-1,34.4-1.8,51.6-2.6
				c5.3-0.3,6,0.9,3.7,5.8c-0.6,1.2-1.2,2.5-1.6,3.8c-0.5,1.7-0.9,3.6,0.4,5c4.1,4.3,4.8,10.5,8.6,14.9c0.7,0.8,0.3,1.3-0.4,1.8
				c-1.1,0.7-2.3,0.6-3.6,0.6c-4.7-0.1-7.9-3.5-11.7-5.5c-4.3-2.3-11.4,1.5-11.7,6.3c0,0.8,0.3,1.4,0.8,2c2,2.2,10.2,3.5,12.3,1.3
				c2.5-2.5,4.7-3.8,8.2-2.2c0.8,0.4,2.2-0.6,2.5,0.8c0.3,1.2-1.3,1.3-1.9,2c-0.6,0.8-2.6,0.3-2.1,2c0.3,1.1,1.4,1.7,2.6,2
				c2.6,0.7,5.1,1.4,5-2.8c-0.1-1.5,0.9-2.1,2.2-1.7c1.5,0.4,4.3,1.4,3.8,2.5c-1.4,3-0.2,7.2-4.6,9.1c-3.1,1.3-4.2,6.1-2.7,7.5
				c3.7,3.5,8,6.6,13.2,6.3c4-0.2,5.1,2.3,6.5,4.7C1291.8,836,1291.8,837.3,1293,837.8z"/>
		</g>
	</g>
	<g id="Oklahoma_xA0_Image_1_">
		<g>
			<path fill="#636363" d="M1112.2,608.2c0,21.2-0.1,42.5,0.1,63.7c0,3.9-0.8,5.3-4.6,4.5c0-0.4,0-1.1,0-1.1
				c-3.2-0.2-4.7-4.3-8.3-3.8c-0.7,0.1-1.9-0.8-2.4-1.5c-1.7-2.5-4.4-3.5-6.7-5.1c-1-0.7-1.8-0.7-2.6,0.3c-3,3.3-6.4,2.6-9.7,0.6
				c-0.7-0.5-1.2-0.6-1.9-0.3c-3.3,1.5-6.5,3.8-10.5,2c-0.2-0.1-0.5,0.2-0.7,0.2c-4-0.5-5.8,3.3-8.6,4.9c-2.5,1.5-2.9,0.3-4.7-0.2
				c-3.5-1.1-5.4-7-10.4-3.7c-0.2,0.2-0.8,0-1.1-0.2c-1.7-1.6-4.9-0.9-5.6-4.2c-0.4,2.8-3.9,2.9-4.1,5.5c-0.1,1.2-0.1,2.6-1.7,2.2
				c-1.5-0.3-2-1.7-1.9-3.2c0.1-1.1,1.7-2.1,0.3-3.6c-1,2.2-3.5,1.9-5.1,3.2c-0.9,0.7-2.2,0.6-2.6-1c-0.7-3.3-5.3-1.3-6.1-4.5
				c-0.3,0.1-0.7,0.2-1,0.4c-1.1,0.6-2.3,0.7-3,2c-0.9,1.4-2.3,2.4-4.1,1.5c-1.5-0.7-3.7-1-2.3-3.6c0.4-0.7-0.2-1.2-0.9-1.3
				c-3.2-0.4-4-2.3-2.4-5.6c-3.2,1.1-6.5-1.1-8.4,0.3c-2.7,2.1-4.3,1.5-6.4-0.3c-0.5-0.4-1.4-0.8-2-0.7c-6.3,1.6-11-3.6-16.8-3.8
				c-0.9,0-1.7-1.4-1.7-2.3c0-2.7-2.2-4-3.4-6c-1.4,0.7-1.7,3.4-3.4,2.4c-1.9-1.2-3.6-0.7-5.5-0.6c-2.1,0.2-3.8-1-5-2.7
				c-0.9-1.3-1.6-3.2-2.8-3.8c-2.9-1.6-2.8-3.9-2.7-6.6c0.9-21.6,1.7-43.1,2.7-64.7c0.1-1.9-0.6-2.4-2.3-2.5c-7.3-0.4-14.7-1-22-1.5
				c-14.2-0.9-28.4-1.9-42.6-2.6c-7.3-0.4-14.7-1.3-22-1c0-6.1,0.1-12.3,0-18.4c0-1.6,0.3-2,1.9-1.9c4.4,0.1,8.7,0,13.1,0
				c0.8,0.7,1.8,0.7,2.8,0.8c7.2,0.5,14.4,1.1,21.7,1.5c23.5,1.2,47.1,2.5,70.7,3.5c28.7,1.3,57.4,1.9,86.1,2.2
				c17,0.2,34,0.3,51,0.2c3.2,0,4.1,1,3.9,4.1c-1,15.6,2.3,30.8,4.4,46.1C1111,601.7,1110.8,605.1,1112.2,608.2z"/>
		</g>
	</g>
	<g id="Nebraska_xA0_Image_1_">
		<g>
			<path fill="#636363" d="M837,388.5c0-3,0-6,0-9c1.8,0.3,1.6-1.1,1.7-2.1c0.5-5.9-0.4-11.9,1.3-17.9c1.4-4.8,0.2-10.1,1.5-15.2
				c1.3-5.2,0.2-10.8,1.4-16.3c1.2-5.6,0.2-11.6,0.1-17.5c5,0,10,0,15,0c-0.3,1.5,0.7,1.6,1.8,1.7c7.3,0.4,14.7-0.4,22.1,1.3
				c6.5,1.5,13.3-0.1,20.2,1.4c7.1,1.6,14.6,0.2,22,1.6c9,1.7,18.3,0.3,27.6,1.3c14.1,1.6,28.4,0,42.6,1.7c3.4,0.4,6.3,0.7,8.8,3.4
				c1.9,2.1,5.7,4.3,7.2,3.7c4.4-1.7,8.6-0.9,12.7-0.8c4.8,0.1,10.3-2.1,14.2,2.7c0.2,0.2,0.7,0.1,1.1,0.1c2.7,0.3,4.8,1.9,6.9,3.5
				c3,2.2,3.1,7.8,8.5,7.3c0.1,0,0.4,0.3,0.4,0.5c1.2,4.4,3.9,8.4,4.5,12.9c0.2,1.6,0.7,2.9,1.8,3.8c1,0.8,1,1.8,1.3,2.8
				c1.4,4.5,1.6,9.1,1.5,13.8c0,1,0.5,1.5,1.2,2.2c3.9,3.7,5,8.3,4.8,13.5c0,1.7-0.3,3.7,0.4,5.2c1.7,3.7,1.7,7.2,0.1,10.8
				c-0.2,0.5-0.6,1-0.1,1.3c2.4,1.5,2.7,4.2,3.4,6.5c0.9,3,3.6,4.8,4.2,8.2c0.5,2.5,3.7,4.4,5.7,6.5c0,2.5,1,6-0.3,7.2
				c-1.2,1.2-4.7,0.3-7.2,0.3c-25.5,0-51,0-76.5,0c0.1-2.4-1.8-1.6-2.9-1.7c-15.4-0.9-30.9,1.3-46.4-1.4c-8.7-1.5-17.6,0.2-26.5-1.3
				c-9.5-1.6-19.4,0.4-29.1-1.7c-2.1-0.5-3.2-0.7-3-3c0.6-5.9-0.6-11.9,1.2-18c1.3-4.2,0.2-9.2,0.3-13.8c0.1-2.4-1-2.8-3.1-2.9
				c-7.7-0.5-15.4,0.9-23.2-1.2c-5.2-1.4-10.8,0.2-16.4-1.5C846,387.4,841.4,388.4,837,388.5z"/>
		</g>
	</g>
	<g id="Utah_xA0_Image_1_">
		<g>
			<path fill="#636363" d="M529.5,497.2c0-1.8,0-3.5,0-5.2c1.2-1.2,1.3-2.9,1.6-4.5c1.8-9,3.4-18,5.2-27c2.7-13.4,5.5-26.7,8.2-40.1
				c3.7-18.7,7.3-37.5,11-56.2c3.6-18.1,7.2-36.3,10.8-54.4c1,0,2,0,3,0c11.8,3.1,23.8,4.7,35.8,6.9c13.5,2.5,27.1,4.8,40.7,7.1
				c2.5,0.4,3.3,1.6,2.9,4c-1.5,9.2-2.9,18.4-4.5,27.6c-1.1,6.5-0.8,6.8,5.9,7.7c0.2,0,0.5,0,0.7,0.1c7.7,1.1,15.5,2.2,23.2,3.4
				c8.1,1.3,16.2,2.6,24.2,4c0,1,0,2,0,3c-0.3,0.9-0.7,1.9-0.9,2.8c-2.1,15.4-4.1,30.8-6.2,46.3c-2.1,15.4-4.4,30.8-6.6,46.2
				c-2.5,17.5-4.9,35-7.3,52.5c-1.5,0-3,0-4.5,0c-1.6-1.4-3.6-0.7-5.4-1c-20.5-3.2-40.9-6.3-61.4-9.7c-18.1-3-36.1-6.5-54.2-9.5
				C544.4,499.7,537.1,497.8,529.5,497.2z"/>
		</g>
	</g>
	<g id="Montana_xA0_Image_1_">
		<g>
			<path fill="#636363" d="M865.5,87c0,0.8,0,1.5,0,2.2c-0.8,1.5-0.8,3.1-0.9,4.7c-1.1,13-2.3,26.1-3.4,39.1
				c-1.1,13.2-2.2,26.3-3.3,39.5c-0.8,9.6-1.8,19.1-2.7,28.7c-1.1,11.9-2.1,23.8-3.1,35.8c-1.5,0-3,0-4.5,0c-1-0.8-2.2-1-3.5-1.1
				c-3.9-0.2-7.7-0.3-11.6-0.7c-17-1.8-33.9-3.9-50.9-5.5c-5.3-0.5-10.6-1.4-16-1.9c-5.9-0.5-11.9-1.4-17.8-2.2
				c-9.3-1.2-18.5-2.4-27.8-3.7c-9.1-1.3-18.2-2.6-27.3-3.9c-7.6-1.1-15.3-2.3-22.9-3.5c-2.4-0.4-3.7,0.4-3.9,3.1
				c-0.3,3.7-1,7.4-1.5,11.1c-0.1,0.9-0.2,1.8-1.1,2.2c-1.2,0.5-1.8-0.5-2.5-1.2c-1.9-1.7-1.9-4.5-3.6-6.4c-0.9-1-2-1.4-2.2-0.4
				c-1.4,4.8-4,6.2-8.7,4.3c-0.8-0.3-2.6,1.6-3.7,0.3c-1.3-1.6-2.9-1.1-4.4-1.2c-1.4-0.1-2.9,0.2-4-0.4c-2.2-1.1-4-2.3-5.2,1.2
				c-0.3,1-1.5,0.8-2.3,0.5c-1.7-0.5-3.2-1.3-4.7-2.2c-2.1-1.2-4.1-1.1-5,1.7c-0.3,0.8-0.2,1.9-1.3,2c-1.3,0.2-1.6-1.1-2-1.9
				c-1.6-3.1-2.6-6.3-2.7-9.9c-0.1-2.9,0-5.9-4-6.4c-3.7-0.5-5.9-4.3-4.3-7.6c0.8-1.6,0.5-2.7-0.5-4.1c-3.1-4.3-4.5-9.2-4.5-14.3
				c0.1-4.2-0.2-7.8-3.8-11c-1.3,3.9-4.9,4.6-7.7,6.5c-1,0.7-1.8,0.4-2.3-0.3c-1.3-1.6-3.4-2.7-4.4-4c-2.3-3,2.4-6,1.2-9.6
				c-0.4-1.2,1-2,2.2-2.1c3.8-0.3,2.2-2.5,1.5-4.3c-0.8-2.3-1.2-5.5,0-6.8c3.4-3.9,3.3-9.4,6.7-13.2c0.3-0.3,0.2-1.5-0.1-1.7
				c-2.4-1.6-5.8-1.9-6.8-5.3c-2.2,0.8-2.4-1.3-3.5-2.3c-2.1-1.8-0.9-4.3-1.7-6.2c-2.2-4.9-6.2-8.9-6.7-14.6c0-0.3-0.7-0.6-1.1-0.8
				c-6.6-3.3-8.7-8.3-6.4-15.3c0.3-0.9,0.2-2.1-0.2-2.9c-1.7-3.1-2.2-6.8-4.7-9.5c0-2,0-4,0-6c3.3-11.1,5.3-22.4,7.5-33.8
				c0.5,0,1,0,1.5,0c0.3,0.7,0.9,0.7,1.5,0.9c10.8,2.1,21.6,4.3,32.4,6.4c13.6,2.7,27.2,5.4,40.9,7.9c14.5,2.6,29.1,5,43.6,7.5
				c7.7,1.3,15.4,2.6,23.2,3.7c11.9,1.7,23.8,3.4,35.8,5c10.1,1.4,20.2,2.7,30.3,4c9.9,1.2,19.8,2.2,29.6,3.3
				c13.2,1.4,26.4,2.8,39.6,4.2C852.2,85.6,858.8,86.3,865.5,87z"/>
		</g>
	</g>
</g>
</svg>
